<?xml version="1.0" encoding="utf-8"?>
<svg version="1.1" id="Capa_1" xmlns="http://www.w3.org/2000/svg"
	xmlns:xlink="http://www.w3.org/1999/xlink" x="0px" y="0px"
	viewBox="0 0 100 100" style="enable-background:new 0 0 100 100;" xml:space="preserve">
<g>
	<path d="M93,50c0,7.8,0,15.5,0,23.3c0,1.5-0.5,2.2-1.8,2.9c-13.2,6.3-26.3,12.7-39.4,19c-1.2,0.6-2.1,0.7-3.3,0.1
		C35.2,88.8,22,82.5,8.8,76.1C7.5,75.5,7,74.7,7,73.3c0.1-15.5,0.1-31,0-46.5c0-1.5,0.5-2.2,1.8-2.9c13.2-6.3,26.4-12.7,39.6-19.1
		c1.1-0.6,2-0.5,3.2,0C64.8,11.2,78,17.5,91.2,23.9c1.3,0.6,1.8,1.4,1.8,2.9C92.9,34.5,93,42.3,93,50z M11.5,25.6
		c1,0.5,1.6,0.8,2.3,1.1c8.5,4.1,17,8.2,25.4,12.3c0.5,0.3,1.2,0.5,1.5,0.9c0.3,0.3,0.5,1.1,0.3,1.4c-0.2,0.4-0.9,0.8-1.4,0.8
		c-0.5,0-1-0.3-1.5-0.6c-8.9-4.3-17.7-8.5-26.6-12.8c-0.6-0.3-1.1-0.5-1.9-0.8c0,0.6-0.1,1-0.1,1.3c0,14.3,0,28.6,0,43
		c0,1.2,0.5,1.7,1.5,2.1c12,5.8,24,11.6,36.1,17.4c0.4,0.2,0.8,0.3,1.4,0.5c0-0.8,0-1.5,0-2.2c0-13.3-0.1-26.6,0.1-39.9
		c0-2.6-0.3-4.4-3.1-5c-0.2,0-0.4-0.1-0.5-0.2c-0.3-0.5-0.8-1.3-0.6-1.6c0.3-0.4,1.1-0.8,1.7-0.8c0.7,0.1,1.5,0.5,2.1,0.9
		c1.1,0.7,2.1,0.7,3.3,0.1c2.2-1.2,4.5-2.2,6.7-3.3c0.9-0.4,2.1-1.3,2.8,0.1c0.8,1.4-0.6,1.8-1.5,2.3c-2.2,1.1-4.5,2.2-6.8,3.2
		c-1.2,0.5-1.5,1.2-1.5,2.4c0,14.1,0,28.2,0,42.2c0,0.5,0.1,1.1,0.1,1.7c0.4-0.2,0.6-0.2,0.9-0.3C64.6,86,76.8,80,89.1,74.2
		c1.2-0.6,1.2-1.4,1.2-2.4c0-14,0-27.9,0-41.9c0-0.6,0-1.2,0-2.1c-4.1,2-8,3.8-11.8,5.8c-0.3,0.2-0.5,1-0.5,1.5
		c0,4.6-0.1,9.2,0,13.8c0,1.4-0.4,2.2-1.7,2.8c-2.8,1.2-5.5,2.6-8.2,3.9c-2.2,1-2.9,0.6-2.9-1.9c0-4.5,0-9.1,0-13.6
		c0-0.9-0.2-1.5-1.1-1.9C51.2,32,38.5,25.8,25.7,19.6c-0.4-0.2-1.1-0.3-1.5-0.1C20.1,21.4,16,23.4,11.5,25.6z M39,12.4
		c0.9,0.5,1.5,0.8,2.1,1.1C52,18.7,63,23.9,73.7,29.3c2.7,1.4,4.8,1.5,7.4-0.1c2.2-1.4,4.7-2.4,7.4-3.7
		C75.6,19.4,63.2,13.4,50.6,7.4c-0.3-0.2-0.8-0.2-1.1-0.1C46.1,8.9,42.7,10.6,39,12.4z M28.2,17.6c0.4,0.3,0.7,0.5,1,0.6
		c12.1,5.8,24.1,11.7,36.2,17.5c0.4,0.2,1,0.5,1.3,0.3c2.4-1.1,4.8-2.3,7.6-3.6C61.4,26.3,49,20.2,36.6,14.3c-0.4-0.2-1.1-0.2-1.5,0
		C32.8,15.3,30.6,16.5,28.2,17.6z M75.2,35.1c-1.2,0.5-2,1.1-2.9,1.3c-3.8,1-5.1,3.3-4.5,7.2c0.4,2.9,0.1,5.9,0.1,9
		c1.3-0.6,2.3-1.2,3.4-1.5c3.4-0.9,4.4-3,4-6.4C74.9,41.6,75.2,38.5,75.2,35.1z" fill="#000"/>
	<path d="M14,58.8c0.6,0.2,1,0.4,1.4,0.5c3.4,1.6,6.9,3.3,10.3,5c0.9,0.4,1.9,0.9,1.3,2.1c-0.5,1.2-1.5,0.8-2.4,0.4
		c-3.5-1.7-7.1-3.4-10.6-5.2c-0.5-0.3-0.9-1.1-1.1-1.8C12.9,59.6,13.7,59.1,14,58.8z" fill="#000"/>
	<path d="M21.6,69.4c-0.2,1.3-0.9,1.8-1.9,1.4c-2.1-0.9-4.1-1.9-6.1-3c-0.4-0.2-0.8-1.2-0.6-1.6c0.2-0.4,1.1-0.9,1.5-0.7
		c2.2,0.9,4.3,2,6.4,3C21.2,68.6,21.4,69.1,21.6,69.4z" fill="#000"/>
</g>
</svg>