<?xml version="1.0" encoding="utf-8"?>
<!-- Generator: Adobe Illustrator 21.0.0, SVG Export Plug-In . SVG Version: 6.00 Build 0)  -->
<svg version="1.1" id="Capa_1" xmlns="http://www.w3.org/2000/svg" xmlns:xlink="http://www.w3.org/1999/xlink" x="0px" y="0px"
	 viewBox="0 0 100 100" style="enable-background:new 0 0 100 100;" xml:space="preserve">
<g>
	<path d="M14.8,49.9c0-11.6,0-23.1,0-34.7c0-6.7,3.6-11,10.4-11.1C37,3.9,48.9,4,60.8,4.1c1.8,0,3.1,1.4,3.1,3
		c0,1.7-1.3,3.1-3.2,3.1c-5.8,0-11.6,0-17.4,0c-5.4,0-10.8,0-16.3,0c-1.2,0-2.4,0.2-3.6,0.6c-1.7,0.5-2.5,1.7-2.5,3.6
		c0.1,23.7,0.1,47.5,0,71.2c0,2,0.9,3.2,2.6,3.7c1.2,0.4,2.5,0.5,3.8,0.5c10.7,0,21.4,0,32.2,0c0.6,0,1.2-0.1,1.7,0
		c1.6,0.3,2.6,1.3,2.7,3c0,1.7-1,2.7-2.6,3c-0.4,0.1-0.9,0-1.3,0c-11,0-22.1,0-33.1,0c-2.9,0-5.7-0.6-8.1-2.4
		c-2.5-1.8-3.8-4.2-3.8-7.3C14.8,74.2,14.8,62.1,14.8,49.9z"/>
	<path d="M76.9,53.1c-12.3,0-24.2,0-36.2,0c-0.6,0-1.3,0.1-1.9-0.1c-1.5-0.3-2.5-1.3-2.5-2.9c0-1.7,0.9-2.7,2.6-3.1
		c0.6-0.1,1.1-0.1,1.7-0.1c11.3,0,22.6,0,33.9,0c0.7,0,1.4,0,2.3,0c-0.4-0.7-0.6-1.3-0.9-1.8c-2.7-4.8-5.5-9.6-8.2-14.5
		c-1.2-2.1-0.9-3.9,0.8-4.8c1.7-0.9,3.3-0.3,4.5,1.8c3.8,6.6,7.6,13.3,11.4,19.9c0.9,1.6,1,3,0.1,4.7C80.6,59,76.9,65.7,73,72.4
		c-1.2,2.1-2.9,2.7-4.6,1.7c-1.6-1-1.9-2.7-0.7-4.8c2.7-4.8,5.4-9.5,8.2-14.3C76.2,54.5,76.5,53.9,76.9,53.1z"/>
</g>
</svg>
