<?xml version="1.0" encoding="utf-8"?>
<!-- Generator: Adobe Illustrator 21.0.0, SVG Export Plug-In . SVG Version: 6.00 Build 0)  -->
<svg version="1.1" id="Capa_1" xmlns="http://www.w3.org/2000/svg" xmlns:xlink="http://www.w3.org/1999/xlink" x="0px" y="0px"
	 viewBox="0 0 100 100" style="enable-background:new 0 0 100 100;" xml:space="preserve">
<style type="text/css">
	.st0{fill:#FFFFFF;}
</style>
<g>
	<path class="st0" d="M14.1,49.9c0-11.3,0-22.6,0-33.9c0-7.6,4.7-12.3,12.4-12.3c13.3,0,26.5,0,39.8,0c1.6,0,2.8,0.5,3.9,1.7
		c5.1,5.9,10.4,11.6,15.5,17.5c0.7,0.8,1.2,2,1.2,3c0.1,19.4,0.1,38.8,0,58.2C86.9,91.2,82,96,75,96c-16.3,0-32.7,0-49,0
		c-7.1,0-11.9-4.8-11.9-11.9C14.1,72.7,14.1,61.3,14.1,49.9z M65.9,7.7c-0.5-0.1-0.6-0.2-0.8-0.2c-13.1,0-26.3,0-39.4,0
		c-2,0-3.9,0.7-5.4,2.1c-2,1.8-2.4,4.2-2.4,6.7c0,15.1,0,30.1,0,45.2c0,7.4,0,14.9,0,22.3c0,5.2,2.9,8.3,7.9,8.3
		c16.5,0.1,33,0,49.5,0c2,0,3.8-0.5,5.3-1.9c2.1-1.9,2.6-4.3,2.6-7c0-18.1,0-36.2,0-54.4c0-0.6,0-1.3,0-1.9
		c-0.4-0.1-0.5-0.2-0.6-0.2c-3.8,0-7.6,0-11.3,0c-5.5,0-5.3,0.3-5.3-5.3C65.9,17,65.9,12.3,65.9,7.7z M80.7,23.1
		c-3.7-4.2-7.2-8.1-11-12.4c0,4.4,0,8.4,0,12.4C73.3,23.1,76.8,23.1,80.7,23.1z"/>
	<path class="st0" d="M50,39.5c-7,0-14,0-21,0c-0.6,0-1.3,0.2-1.8-0.1c-0.6-0.4-1.3-1.2-1.3-1.8c0-0.5,0.7-1.3,1.3-1.6
		c0.5-0.3,1.3-0.2,1.9-0.2c13.9,0,27.8,0,41.7,0c2.5,0,3.4,0.5,3.4,1.9c0,1.4-0.9,1.9-3.4,1.9C63.9,39.5,56.9,39.5,50,39.5z"/>
	<path class="st0" d="M49.8,58.2c-7,0-13.9,0-20.9,0c-0.6,0-1.3,0.1-1.8-0.1c-0.6-0.4-1.3-1.1-1.3-1.7c0-0.6,0.7-1.4,1.3-1.8
		c0.4-0.3,1.2-0.1,1.8-0.1c14,0,28.1,0,42.1,0c0.1,0,0.2,0,0.4,0c1.4,0,2.9,0,2.8,1.9c0,1.8-1.5,1.9-2.9,1.9
		C64.2,58.2,57,58.2,49.8,58.2z"/>
	<path class="st0" d="M49.9,67.6c-7,0-13.9,0-20.9,0c-0.5,0-1.2,0.2-1.6-0.1c-0.7-0.4-1.6-1.1-1.6-1.7c0-0.6,0.9-1.4,1.5-1.8
		c0.4-0.3,1-0.1,1.6-0.1c14,0,28.1,0,42.1,0c0.4,0,0.7,0,1.1,0c1.2,0,2.2,0.6,2.1,1.9c0,1.3-0.9,1.9-2.2,1.9c-0.4,0-0.8,0-1.3,0
		C63.8,67.6,56.9,67.6,49.9,67.6z"/>
	<path class="st0" d="M49.9,48.9c-7,0-13.9,0-20.9,0c-0.6,0-1.3,0.2-1.8-0.1c-0.6-0.4-1.5-1.2-1.5-1.7c0.1-0.7,0.9-1.3,1.5-1.9
		c0.2-0.2,0.8-0.1,1.2-0.1c14.3,0,28.5,0,42.8,0c0.3,0,0.6,0,0.9,0c1.2,0.1,2,0.7,1.9,1.9c0,1.2-0.8,1.8-2,1.9c-0.5,0-1.1,0-1.6,0
		C63.7,48.9,56.8,48.9,49.9,48.9z"/>
	<path class="st0" d="M36.1,26.8c-2.6,0-5.3,0-7.9,0c-1.3,0-2.4-0.4-2.4-1.8c-0.1-1.5,1.1-2,2.4-2c5.2,0,10.4,0,15.6,0
		c1.3,0,2.5,0.3,2.4,2c-0.1,1.5-1.1,1.8-2.4,1.8C41.2,26.8,38.7,26.8,36.1,26.8z"/>
	<path class="st0" d="M36.1,72.9c2.6,0,5.1,0,7.7,0c1.3,0,2.3,0.4,2.4,1.8c0.1,1.5-1,2-2.2,2c-5.3,0-10.6,0-16,0
		c-1.3,0-2.3-0.6-2.2-2c0.1-1.3,1-1.8,2.3-1.8C30.7,72.9,33.4,72.9,36.1,72.9z"/>
</g>
</svg>
