<?xml version="1.0" encoding="utf-8"?>
<!-- Generator: Adobe Illustrator 21.0.0, SVG Export Plug-In . SVG Version: 6.00 Build 0)  -->
<svg version="1.1" id="Capa_1" xmlns="http://www.w3.org/2000/svg" xmlns:xlink="http://www.w3.org/1999/xlink" x="0px" y="0px"
	 viewBox="0 0 100 100" style="enable-background:new 0 0 100 100;" xml:space="preserve">
<style type="text/css">
	.st0{fill:#FFFFFF;}
</style>
<g>
	<path class="st0" d="M29,41c-2.8,0-5.6,0-8.4,0c-2.5,0-3.6-1.1-3.6-3.5c0-5.7,0-11.4,0-17c0-2.3,1.1-3.5,3.4-3.5c5.7,0,11.4,0,17,0
		c2.4,0,3.5,1.1,3.5,3.6c0,5.6,0,11.2,0,16.8c0,2.4-1.1,3.5-3.5,3.6C34.7,41,31.9,41,29,41z M34.8,35c0-3.9,0-7.9,0-11.8
		c-3.9,0-7.8,0-11.7,0c0,4,0,7.9,0,11.8C27.1,35,30.9,35,34.8,35z"/>
	<path class="st0" d="M17,70.8c0-2.8,0-5.6,0-8.4c0-2.2,1.1-3.4,3.3-3.4c5.8,0,11.6,0,17.4,0c2.1,0,3.2,1.2,3.2,3.3
		c0,5.8,0,11.6,0,17.4c0,2.1-1.2,3.3-3.2,3.3c-5.9,0-11.7,0-17.6,0c-2,0-3.1-1.2-3.1-3.2C17,76.8,17,73.8,17,70.8z M34.9,76.9
		c0-4,0-7.9,0-11.8c-4,0-7.9,0-11.7,0c0,4,0,7.8,0,11.8C27.1,76.9,30.9,76.9,34.9,76.9z"/>
	<path class="st0" d="M83,71c0,2.8,0,5.6,0,8.4c0,2.4-1.1,3.5-3.5,3.6c-5.6,0-11.2,0-16.8,0c-2.5,0-3.6-1.1-3.6-3.7
		c0-5.6,0-11.1,0-16.7c0-2.6,1.1-3.6,3.6-3.6c5.6,0,11.1,0,16.7,0c2.7,0,3.7,1.1,3.7,3.8C83,65.5,83,68.3,83,71z M76.9,76.9
		c0-4.1,0-7.9,0-11.8c-4,0-7.9,0-11.8,0c0,4,0,7.9,0,11.8C69.1,76.9,73,76.9,76.9,76.9z"/>
	<path class="st0" d="M22.7,5c2.9,0,5.9,0,8.8,0C33.7,5,35,6.2,35,8c0,1.8-1.3,3-3.5,3c-5.6,0-11.1,0-16.7,0c-2.7,0-3.8,1-3.8,3.7
		c0,5.5,0,11,0,16.5c0,2.4-1.1,3.7-2.9,3.8C6.2,35,5,33.6,5,31.1C5,25.6,5,20,5,14.5C5,8.8,8.8,5.1,14.4,5C17.2,5,19.9,5,22.7,5z"/>
	<path class="st0" d="M95,22.6c0,2.9,0,5.9,0,8.8c0,2.2-1.1,3.6-2.9,3.6c-1.9,0-3-1.4-3.1-3.7c0-5.5,0-11,0-16.5
		c0-2.8-1-3.8-3.9-3.8c-5.4,0-10.9,0-16.3,0C66.4,11,65,9.9,65,7.9C65.1,6.1,66.4,5,68.8,5c5.6,0,11.2,0,16.9,0
		c5.5,0,9.3,3.8,9.3,9.3C95,17.1,95,19.9,95,22.6z"/>
	<path class="st0" d="M22.6,95c-2.9,0-5.7,0-8.6,0c-5-0.1-8.9-3.9-9-8.9C5,80.2,5,74.3,5,68.4c0-2.2,1.3-3.5,3.1-3.4
		c1.7,0.1,2.9,1.4,2.9,3.4c0,5.6,0,11.1,0,16.7c0,2.8,1,3.9,3.8,3.9c5.4,0,10.7,0,16.1,0c2.7,0,4.1,1.1,4.1,3c0,1.9-1.4,3-4.1,3
		C28.1,95,25.4,95,22.6,95z"/>
	<path class="st0" d="M77.2,95c-2.9,0-5.7,0-8.6,0c-2.2,0-3.5-1.2-3.6-3c0-1.8,1.3-3,3.5-3c5.3,0,10.6,0,15.9,0
		c3.7,0,4.5-0.8,4.5-4.4c0-5.2,0-10.5,0-15.7c0-2.4,1.1-3.7,2.9-3.8c1.9,0,3.1,1.4,3.1,3.8c0,5.6,0,11.1,0,16.7
		c0,5.7-3.8,9.4-9.6,9.5C82.7,95,79.9,95,77.2,95z"/>
	<path class="st0" d="M77,23c-2,0-3.7,0-5.4,0c-7,0-14,0-21,0c-2.2,0-3.5-1.2-3.6-3c0-1.8,1.3-3,3.5-3c9.6,0,19.2,0,28.9,0
		c2.5,0,3.6,1.1,3.6,3.5c0,3.7,0,7.4,0,11.1c0,2.1-1.2,3.4-2.9,3.4c-1.8,0-3-1.3-3.1-3.5C77,28.8,77,26,77,23z"/>
	<path class="st0" d="M65,35c0,5,0,9.8,0,14.6c0,2.2-1.7,3.7-3.6,3.3c-1.6-0.4-2.4-1.5-2.4-3.1c0-5.9,0-11.7,0-17.6
		c0-2,1.2-3.1,3.2-3.2C64.1,29,66,29,68,29c1.8,0.1,3,1.3,3,2.9c0,1.6-1.2,2.9-2.9,3C67.1,35.1,66.2,35,65,35z"/>
	<path class="st0" d="M53,71c0,2.7,0,5.5,0,8.2c0,2.4-1.1,3.7-3,3.8c-1.9,0-3-1.4-3-3.7c0-5.5,0-11.1,0-16.6c0-2.3,1.2-3.7,3-3.7
		c1.9,0,2.9,1.4,3,3.8C53,65.5,53,68.2,53,71z"/>
	<path class="st0" d="M27.5,47c2.3,0,4.6,0,6.9,0c2.2,0,3.5,1.1,3.6,2.9c0,1.8-1.3,3-3.5,3c-4.7,0-9.3,0-14,0c-2.2,0-3.5-1.2-3.5-3
		c0-1.8,1.4-2.9,3.6-3C22.9,47,25.2,47,27.5,47z"/>
	<path class="st0" d="M77,47c-1.1,0-2,0-2.9,0c-1.9-0.1-3.1-1.3-3.1-3c0-1.6,1.2-2.9,3-2.9c2-0.1,4-0.1,6,0c1.8,0.1,2.9,1.2,3,3
		c0.1,2,0.1,4,0,6c-0.1,1.8-1.4,3-3,3c-1.6,0-2.9-1.2-3-3C77,49.1,77,48.2,77,47z"/>
	<path class="st0" d="M53,35c0,1,0,2,0,3c-0.1,1.8-1.3,3-2.9,3c-1.6,0-3-1.2-3-2.9C47,36,47,34,47,31.9c0.1-1.7,1.4-2.9,3-2.9
		c1.6,0,2.8,1.2,2.9,3C53,33,53,34,53,35z"/>
	<path class="st0" d="M48.5,53c-0.2,0-0.5,0-0.7,0c-2.3,0-3.7-1.1-3.7-3c0-1.9,1.4-3,3.7-3c0.7,0,1.4,0,2.1,0
		c1.9,0.1,3.2,1.2,3.2,2.9c0.1,1.7-1.3,3-3.2,3.1C49.3,53,48.9,53,48.5,53z"/>
</g>
</svg>
