<?xml version="1.0" encoding="utf-8"?>
<!-- Generator: Adobe Illustrator 21.0.0, SVG Export Plug-In . SVG Version: 6.00 Build 0)  -->
<svg version="1.1" id="Capa_1" xmlns="http://www.w3.org/2000/svg" xmlns:xlink="http://www.w3.org/1999/xlink" x="0px" y="0px"
	 viewBox="0 0 100 100" style="enable-background:new 0 0 100 100;" xml:space="preserve">
<style type="text/css">
	.st0{fill:#FFFFFF;}
</style>
<g>
	<path class="st0" d="M49.3,12.1c2.6-2.6,5.1-5.1,7.4-7.6c1-1.1,2-1.2,3.3-0.6c11.4,5.4,22.8,10.8,34.2,16.2c2,1,2.2,2.2,0.6,3.8
		c-2.5,2.5-4.9,4.9-7.6,7.5c2.2,2.2,4.3,4.3,6.4,6.4c0.4,0.4,0.9,0.8,1.3,1.3c1.4,1.5,1.2,2.7-0.6,3.6c-2.2,1.1-4.4,2.1-6.6,3.1
		c-0.9,0.4-1.2,0.9-1.2,1.9c0,9.2,0,18.4,0.1,27.6c0,1.5-0.5,2.4-1.8,3.1c-11.3,5.9-22.6,11.9-33.9,17.8c-1.1,0.6-2.1,0.6-3.2,0
		c-11.4-6-22.8-12-34.2-18c-1.2-0.6-1.6-1.4-1.6-2.7c0-9.2,0-18.4,0.1-27.6c0-1.2-0.4-1.8-1.4-2.2c-2.1-0.9-4.1-1.9-6.1-2.8
		c-2.2-1.1-2.5-2.2-0.7-4c2.5-2.5,4.9-4.9,7.5-7.4c-2.6-2.6-5.1-5-7.6-7.5c-1.7-1.7-1.4-2.9,0.7-3.9C15.7,14.7,27.1,9.4,38.4,3.9
		c1.4-0.7,2.4-0.5,3.4,0.6C44.2,7,46.7,9.4,49.3,12.1z M51.2,91.8c0.4-0.2,0.6-0.2,0.8-0.4c10-5.2,20-10.5,30-15.7
		c0.8-0.4,0.9-1,0.9-1.8c0-8.1,0-16.1,0-24.2c0-0.4-0.1-0.8-0.1-1.4c-0.7,0.3-1.2,0.5-1.8,0.8c-6.9,3.3-13.8,6.5-20.7,9.8
		c-1.5,0.7-2.6,0.6-3.7-0.7c-1.7-1.8-3.4-3.5-5.4-5.5C51.2,66,51.2,78.8,51.2,91.8z M15.7,48.2c0,0.8,0,1.3,0,1.8
		c0,7.9,0,15.8,0,23.7c0,1.1,0.4,1.7,1.3,2.2c9.7,5.1,19.4,10.2,29,15.3c0.4,0.2,0.9,0.4,1.3,0.6c0-13,0-25.8,0-39
		c-2,2.1-3.8,3.8-5.6,5.7c-1,1.1-2,1.2-3.3,0.5c-2.7-1.3-5.5-2.6-8.2-3.9C25.5,52.8,20.7,50.6,15.7,48.2z M18.3,31.4
		c0.4,0.2,0.6,0.4,0.8,0.5c9.7,4.6,19.5,9.2,29.3,13.8c0.6,0.3,1.5,0.2,2-0.1c7.1-3.3,14.2-6.7,21.3-10.1c2.8-1.3,5.6-2.7,8.6-4.1
		c-0.4-0.2-0.6-0.4-0.8-0.5c-9.7-4.6-19.5-9.2-29.3-13.8c-0.6-0.3-1.5-0.2-2,0.1c-7.4,3.4-14.7,6.9-22.1,10.4
		C23.5,28.9,21,30.1,18.3,31.4z M46.1,14.1c-2-1.9-3.8-3.7-5.5-5.5c-0.7-0.8-1.3-0.9-2.3-0.4c-7,3.4-14,6.7-21,10
		c-3.2,1.5-6.3,3-9.7,4.6c1.6,1.6,3.1,3,4.5,4.4c2.1,2,2.1,2.1,4.7,0.8C26.5,23.4,36.2,18.8,46.1,14.1z M91,40.2c-2-2-4-3.8-5.8-5.7
		c-0.7-0.7-1.2-0.6-1.9-0.3c-7.7,3.7-15.4,7.3-23,10.9c-2.5,1.2-5,2.4-7.8,3.7c2,1.9,3.8,3.7,5.6,5.5c0.7,0.8,1.3,0.9,2.3,0.4
		c5.8-2.8,11.6-5.5,17.4-8.3C82,44.5,86.4,42.4,91,40.2z M52.5,14.1c10.5,5,20.8,9.9,31.1,14.7c0.3,0.2,1,0.2,1.2,0
		c2.1-1.9,4.1-3.9,6.3-6.1c-2.7-1.3-5.1-2.4-7.5-3.6C75.8,15.5,68,11.8,60.1,8.1c-0.4-0.2-1.3-0.3-1.5,0C56.6,10,54.6,12,52.5,14.1z
		 M46.1,48.9C35.6,43.9,25.3,39,15,34.1c-0.4-0.2-1.1,0-1.4,0.2c-2,1.9-3.9,3.8-6,5.8c0.6,0.3,1,0.5,1.5,0.7c3,1.5,6.1,2.9,9.2,4.4
		c6.7,3.2,13.5,6.4,20.2,9.5c0.4,0.2,1.3,0.3,1.5,0C42,53,44,51,46.1,48.9z"/>
</g>
</svg>
