<?xml version="1.0" encoding="utf-8"?>
<!-- Generator: Adobe Illustrator 21.0.0, SVG Export Plug-In . SVG Version: 6.00 Build 0)  -->
<svg version="1.1" id="Capa_1" xmlns="http://www.w3.org/2000/svg" xmlns:xlink="http://www.w3.org/1999/xlink" x="0px" y="0px"
	 viewBox="0 0 100 100" style="enable-background:new 0 0 100 100;" xml:space="preserve">
<g>
	<path d="M26,38c0-4.1,0-8.1,0-12.1c0.1-6.3,2.2-11.9,6.6-16.4C39.3,2.8,47.3,0.5,56.4,3c9,2.5,14.7,8.6,17,17.8
		c0.4,1.8,0.6,3.7,0.6,5.6C74,30.2,74,34,74,38c0.9,0,1.8,0,2.7,0c5.4,0,9.3,3.8,9.3,9.2c0,13.8,0,27.7,0,41.5
		c0,5.3-3.9,9.2-9.2,9.2c-17.9,0-35.8,0-53.7,0c-5.2,0-9.1-3.9-9.1-9.1c0-13.9,0-27.8,0-41.7c0-5.3,3.9-9.1,9.2-9.2
		C24.1,38,24.9,38,26,38z M65.9,38c0-4.4,0.1-8.7,0-12.9c-0.3-8.4-7.3-14.9-15.8-15c-8.5,0-15.6,6.6-15.9,15c-0.2,4.1,0,8.2,0,12.3
		c0,0.2,0.1,0.4,0.1,0.6C44.8,38,55.3,38,65.9,38z"/>
</g>
</svg>
