<?xml version="1.0" encoding="utf-8"?>
<!-- Generator: Adobe Illustrator 21.0.0, SVG Export Plug-In . SVG Version: 6.00 Build 0)  -->
<svg version="1.1" id="Capa_1" xmlns="http://www.w3.org/2000/svg" xmlns:xlink="http://www.w3.org/1999/xlink" x="0px" y="0px"
	 viewBox="0 0 100 100" style="enable-background:new 0 0 100 100;" xml:space="preserve">
<g>
	<path d="M65,12.9c-0.6,5.8-0.7,5.9-6.4,5.9c-6.4,0-12.8,0-19.2,0c-3,0-4.2-1.2-4.2-4.2c0-1.1,0-2.2,0-3.3c-0.1-1.9,0.8-3.2,2.7-3.8
		c0.4-0.1,0.8-0.6,1-1C39.3,4.9,40.5,4,42.2,4c5.2,0,10.4,0,15.6,0c0.7,0,1.9,0.2,2.1,0.7c1,1.9,2.6,3.1,4.3,4.3
		c0.6,0.4,1.3,0.9,1.9,0.9c4.9,0.1,9.8,0,14.7,0c3.4,0,5,1.6,5,5c0,25.3,0,50.7,0,76c0,3.2-1.7,5-4.9,5c-20.7,0-41.5,0-62.2,0
		c-3.1,0-4.8-1.8-4.8-4.9c0-25.4,0-50.8,0-76.2c0-3.2,1.6-4.8,4.8-4.9c4.1,0,8.2,0,12.3,0c1.1,0,2.1,0.2,2,1.5c0,1.2-1,1.5-2.1,1.5
		c-3.9,0-7.9,0-11.8,0c-1.7,0-2.4,0.6-2.3,2.3c0,25.2,0,50.3,0,75.5c0,1.7,0.6,2.4,2.3,2.4c20.5,0,41,0,61.5,0
		c1.7,0,2.3-0.7,2.3-2.4c0-25.2,0-50.3,0-75.5c0-1.2-0.1-2.3-1.6-2.3C76,12.9,70.6,12.9,65,12.9z M41.7,7c-0.2,2.3-1.6,3.4-3.7,3.7
		c0,1.2,0.1,2.2,0,3.2c-0.2,1.5,0.3,2.1,2,2.1c6.7-0.1,13.4,0,20.1,0c0.6,0,1.2-0.1,1.7-0.1c0-1.9,0-3.5,0-5.3
		c-2.4-0.1-3.2-1.7-3.7-3.6C52.6,7,47.3,7,41.7,7z"/>
	<path d="M70.4,38.7c0-1.4-0.2-2.5,0.1-3.6c0.1-0.7,0.9-1.2,1.4-1.7c0.5,0.6,0.9,1.2,1.4,1.8c0,0,0,0.1,0,0.2
		c0.1,4.5,0.2,6.6-6.1,6.3c-1.4-0.1-2.9,0-4.3,0c-2.3-0.1-3.6-1.3-3.7-3.6c-0.1-2.4-0.1-4.7,0-7.1c0.1-2.2,1.4-3.4,3.6-3.5
		c1.1,0,2.2-0.1,3.2,0.1c0.5,0.1,1.3,0.9,1.3,1.3c0,0.5-0.7,1.2-1.3,1.4c-0.8,0.2-1.8,0.1-2.7,0.1c-1-0.1-1.3,0.4-1.3,1.3
		c0,1.9,0,3.9,0,5.8c0,0.9,0.3,1.3,1.3,1.3C65.6,38.7,67.8,38.7,70.4,38.7z"/>
	<path d="M62.1,53.9c0,2.6,0,5.1,0.1,7.5c0,0.3,0.7,0.8,1.1,0.8c2,0.1,4,0.1,6,0c0.4,0,1-0.7,1.1-1.1c0.2-0.9-0.1-1.9,0.2-2.7
		c0.2-0.6,1-1,1.5-1.4c0.4,0.5,1.1,1,1.2,1.5c0.2,1.2,0.1,2.5,0,3.8c-0.2,1.7-1.5,2.9-3.4,2.9c-2.4,0.1-4.8,0.1-7.2,0
		c-2-0.1-3.4-1.4-3.4-3.5c-0.1-2.4-0.1-4.8,0-7.2c0.1-2.2,1.4-3.4,3.6-3.4c1,0,2.1-0.1,3.1,0.1c0.6,0.1,1,0.8,1.5,1.3
		c-0.5,0.5-0.9,1.4-1.5,1.5C64.8,54.1,63.6,53.9,62.1,53.9z"/>
	<path d="M66.3,88.8c-1.1,0-2.3,0-3.4,0c-2.3-0.1-3.6-1.4-3.7-3.6c-0.1-2.4-0.1-4.7,0-7.1c0.1-2.2,1.4-3.4,3.6-3.5
		c1,0,2-0.2,2.9,0.1c0.7,0.2,1.2,0.9,1.7,1.4c-0.6,0.5-1.1,1.1-1.8,1.4c-0.6,0.2-1.3,0.1-2,0C62.3,77.4,62,78,62,79.2
		c0.1,1.6,0.1,3.3,0,4.9c-0.1,1.3,0.3,1.9,1.7,1.8c1.7-0.1,3.4-0.1,5.1,0c1.2,0,1.7-0.3,1.6-1.5c-0.1-0.7-0.2-1.5,0.1-2.1
		c0.3-0.7,1-1.1,1.5-1.7c0.4,0.5,1.1,1,1.3,1.7c0.2,1,0.1,2,0.1,3.1c-0.1,2.1-1.3,3.4-3.4,3.5C68.7,88.8,67.5,88.8,66.3,88.8
		C66.3,88.8,66.3,88.8,66.3,88.8z"/>
	<path d="M38.6,27.5c4,0,8,0,11.9,0c1.1,0,2.2,0.1,2.2,1.5c0,1.4-1.2,1.5-2.3,1.5c-8,0-16.1,0-24.1,0c-1.1,0-2.2-0.1-2.2-1.5
		c0-1.4,1.2-1.4,2.2-1.4C30.6,27.5,34.6,27.5,38.6,27.5z"/>
	<path d="M38.6,51.1c4,0,8.1,0,12.1,0c1.1,0,2.1,0.1,2.1,1.4c0,1.2-1,1.5-2,1.5c-8.1,0-16.3,0-24.4,0c-1,0-2.1-0.2-2.1-1.4
		c0-1.4,1.1-1.5,2.2-1.5C30.5,51.1,34.5,51.1,38.6,51.1z"/>
	<path d="M38.5,74.6c4,0,8,0,11.9,0c1.1,0,2.4-0.1,2.4,1.5c-0.1,1.5-1.3,1.4-2.5,1.4c-7.9,0-15.8,0-23.7,0c-1.1,0-2.4,0-2.4-1.5
		c0-1.4,1.2-1.4,2.3-1.4C30.5,74.6,34.5,74.6,38.5,74.6z"/>
	<path d="M32.9,37.8c-2.2,0-4.5,0-6.7,0c-1,0-1.9-0.2-1.9-1.4c0-1.2,0.9-1.5,1.9-1.5c4.5,0,9.1-0.1,13.6,0.1c0.7,0,1.7,0.8,1.8,1.4
		c0.2,1.1-0.8,1.4-1.8,1.4C37.4,37.8,35.1,37.8,32.9,37.8z"/>
	<path d="M32.8,84.9c-2.2,0-4.5,0-6.7,0c-1,0-2-0.3-1.8-1.4c0.1-0.6,1.2-1.4,1.8-1.4c4.5-0.1,9.1-0.1,13.6,0c0.6,0,1.7,0.8,1.8,1.4
		c0.2,1.1-0.8,1.4-1.8,1.4C37.4,84.9,35.1,84.9,32.8,84.9z"/>
	<path d="M32.8,61.3c-2.2,0-4.3,0-6.5,0c-1,0-2.2-0.2-2-1.4c0.1-0.6,1.2-1.4,1.8-1.4c4.5-0.1,9.1-0.1,13.6,0c0.6,0,1.7,0.9,1.8,1.5
		c0.2,1.1-0.8,1.4-1.9,1.4C37.4,61.3,35.1,61.3,32.8,61.3z"/>
	<path d="M76.5,25.9c-0.4,0.6-0.7,1.1-1.1,1.5c-2.5,2.6-5.1,5.1-7.7,7.7c-0.7,0.7-1.6,1.3-2.5,0.4c-0.9-0.9-0.3-1.7,0.4-2.5
		c2.6-2.6,5.2-5.2,7.8-7.8c0.4-0.4,1.3-0.6,1.9-0.6C75.8,24.7,76.1,25.4,76.5,25.9z"/>
	<path d="M76.5,49.5c-0.4,0.6-0.6,1-1,1.4c-2.6,2.6-5.2,5.2-7.8,7.8C67,59.5,66.1,60,65.2,59c-0.8-0.8-0.3-1.6,0.4-2.3
		c2.6-2.6,5.3-5.3,7.9-7.9c0.4-0.4,1.3-0.6,1.9-0.5C75.8,48.3,76.1,49,76.5,49.5z"/>
	<path d="M66.1,83.2c-0.4-0.3-1-0.5-1.1-0.9c-0.1-0.5-0.1-1.3,0.2-1.6c2.8-2.9,5.6-5.8,8.6-8.5c0.4-0.4,1.4-0.1,2.1-0.1
		c0,0.7,0.2,1.7-0.2,2.1c-2.7,2.9-5.6,5.7-8.4,8.5C67.1,82.9,66.6,83,66.1,83.2z"/>
</g>
</svg>
