<?xml version="1.0" encoding="utf-8"?>
<!-- Generator: Adobe Illustrator 21.0.0, SVG Export Plug-In . SVG Version: 6.00 Build 0)  -->
<svg version="1.1" id="Capa_1" xmlns="http://www.w3.org/2000/svg" xmlns:xlink="http://www.w3.org/1999/xlink" x="0px" y="0px"
	 viewBox="0 0 100 100" style="enable-background:new 0 0 100 100;" xml:space="preserve">
<g>
	<path d="M50,95c-6.8,0-13.7,0-20.5,0C15,94.9,5.1,85,5,70.6C5,56.8,5,43.1,5,29.3c0.1-14.3,10-24.2,24.3-24.3c13.8,0,27.5,0,41.3,0
		C84.9,5.1,94.9,15,95,29.3C95,43.1,95,56.8,95,70.6C94.9,85,84.9,94.9,70.5,95C63.7,95,56.8,95,50,95z M16.9,87.5
		c0.3-0.2,0.4-0.2,0.4-0.3c0.4-0.6,0.7-1.2,1.1-1.7c5.4-7.8,12.8-12,22.3-12.2c6.2-0.2,12.3-0.2,18.5,0c9.5,0.2,16.9,4.4,22.3,12.2
		c0.5,0.7,0.9,1.4,1.4,2c5.4-3.5,8.4-9.4,8.4-16.7c0-13.8,0-27.5,0-41.3c0-12.4-8.3-20.8-20.8-20.8c-13.7,0-27.4,0-41.1,0
		C17,8.8,8.7,17.1,8.7,29.5c0,13.7,0,27.4,0,41.1c0,1.2,0,2.4,0.2,3.6C9.7,79.8,12.4,84.2,16.9,87.5z M79.9,90
		c-4.1-7.2-9.7-11.8-17.2-12.4c-8.4-0.7-17-0.7-25.5,0c-7.5,0.6-13.1,5.2-17.1,12.4c3,0.5,5.7,1.2,8.4,1.3c14.4,0.1,28.8,0.1,43.1,0
		C74.2,91.2,76.8,90.5,79.9,90z"/>
	<path d="M67.4,46.5c-0.1,9.6-7.9,17.3-17.5,17.2c-9.6-0.1-17.3-7.9-17.2-17.5c0-9.6,7.9-17.3,17.5-17.2
		C59.8,29,67.4,36.8,67.4,46.5z M63.7,46.4c0-7.6-6.1-13.7-13.8-13.7c-7.5,0-13.6,6.1-13.6,13.6c0,7.6,6.1,13.8,13.7,13.8
		C57.6,60.1,63.7,54,63.7,46.4z"/>
</g>
</svg>
