<?xml version="1.0" encoding="utf-8"?>
<!-- Generator: Adobe Illustrator 21.0.0, SVG Export Plug-In . SVG Version: 6.00 Build 0)  -->
<svg version="1.1" id="Capa_1" xmlns="http://www.w3.org/2000/svg" xmlns:xlink="http://www.w3.org/1999/xlink" x="0px" y="0px"
	 viewBox="0 0 100 100" style="enable-background:new 0 0 100 100;" xml:space="preserve">
<g>
	<path d="M68.9,39.4c2.2-10,4.5-19.8,6.7-29.7c4.3,0.8,8.4,1.7,12.5,2.5c1.1,0.2,2.2,0.5,3.4,0.7c3.1,0.6,5,3.2,4.5,6.1
		c-0.6,3-3.4,4.9-6.6,4.2c-2.2-0.5-4.5-0.9-6.9-1.4c-0.5,2-0.9,3.8-1.4,5.7c-0.4,1.8-0.7,3.6-1.2,5.3c-0.4,1.2-0.2,2.1,0.4,3.1
		c1.2,2.3,2.4,4.7,3.5,7c0.3,0.5,0.3,1.3,0.2,1.9c-2.3,10.3-4.6,20.6-6.9,30.9c-0.1,0.6-0.1,1.2,0.1,1.8c1.9,5.1,1.3,9.8-2.3,13.9
		c-3.6,4-8.2,5.5-13.4,4.1c-5.4-1.5-8.6-5.2-9.8-10.7c-0.1-0.4-0.6-1-1-1c-7.8-1.5-15.7-2.9-23.5-4.4c-3.8-0.7-7.6-1.4-11.4-2.1
		c-3.4-0.7-4.8-3-3.9-6.3c0.2-0.8,0.2-1.8,0.7-2.5c0.7-1.1,1.4-2.3,2.5-3c1-0.6,1.4-1.1,1.7-2.2c1.2-5.8,2.5-11.7,3.8-17.7
		c-5.4,0-10.8,0-16.3,0c0-0.6,0-1.1,0-1.5c0-9.7,0-19.4,0-29c0-0.7,0.4-1.6,0.9-2.1c2.6-2.8,5.4-5.5,8.1-8.1C13.4,4.4,14,4,14.6,4
		C21.7,4,28.8,4,36,4c0.2,0,0.4,0.1,0.7,0.1c0,0.6,0,1.1,0,1.7c0,8.6,0,17.2,0,25.9c0,1,0.2,1.5,1.2,1.7c9.8,1.9,19.6,3.9,29.4,5.8
		C67.8,39.2,68.2,39.3,68.9,39.4z M19.2,65.1c1.8,0.3,3.5,0.7,5.2,1c10.2,2.1,20.4,4.1,30.6,6.1c0.6,0.1,1.4-0.2,2.1-0.5
		c1.4-0.6,2.6-1.4,4-1.9c0.8-0.3,1.1-0.6,1.3-1.4c1.3-6,2.7-12,4.1-18c0.6-2.6,1.2-5.3,1.8-8c-3.4-0.7-6.6-1.3-9.9-2
		c-1,3.4-1.9,6.6-2.8,9.8c-6-1.2-11.8-2.4-17.7-3.5c0.9-3.3,1.8-6.5,2.8-9.8c-1.3-0.3-2.5-0.5-3.9-0.8c0,3.2,0,6.3,0,9.4
		c-0.7,0-1.2,0-1.8,0c-3.3,0-6.6,0.1-9.9,0c-1.2,0-1.7,0.3-1.9,1.5c-0.6,3.1-1.3,6.3-2,9.4C20.4,59.2,19.8,62.1,19.2,65.1z
		 M7.1,15.8c0,9,0,17.8,0,26.6c8.9,0,17.7,0,26.5,0c0-11.9,0-23.6,0-35.4c-5.9,0-11.7,0-17.7,0c0,2.9,0,5.8,0,8.8
		C12.8,15.8,10,15.8,7.1,15.8z M53.5,75.1c-0.1,0-0.3-0.1-0.5-0.1c-11-2.2-22-4.3-33-6.6c-4.2-0.9-4.6-0.9-5.5,3.4
		c-0.3,1.5,0,2.1,1.5,2.5c1.4,0.3,2.9,0.6,4.4,0.8c8.4,1.6,16.9,3.2,25.3,4.7c1.9,0.4,3.8,0.7,5.6,1C52.1,78.8,52.8,77,53.5,75.1z
		 M54.5,82.6c0,5.7,4.5,10.3,10.3,10.4c5.7,0.1,10.5-4.7,10.4-10.4c0-5.7-4.6-10.3-10.3-10.4C59.2,72.2,54.5,76.9,54.5,82.6z
		 M76.2,20.6C72.5,36.8,68.9,53,65.2,69.2c1.1,0.2,2,0.3,3.1,0.5c3.7-16.2,7.4-32.3,11.1-48.5C78.3,21,77.3,20.8,76.2,20.6z
		 M76.9,17.6c4.6,0.9,9,1.8,13.5,2.7c1.2,0.2,2.3-0.7,2.6-1.8c0.2-1.2-0.4-2.4-1.6-2.6c-4.4-0.9-8.9-1.8-13.5-2.7
		C77.5,14.7,77.2,16.1,76.9,17.6z M77.4,60.1c0.8-3.6,1.6-7.1,2.4-10.7c-1.2-0.2-2.4-0.5-3.7-0.7c-0.8,3.6-1.6,7.1-2.4,10.7
		C75.1,59.7,76.2,59.9,77.4,60.1z M73.1,62.4c-0.6,2.7-1.2,5.3-1.8,7.9c-0.1,0.3,0.1,0.7,0.3,0.9c0.9,0.7,1.9,1.4,2.9,2.1
		c0.8-3.4,1.5-6.7,2.3-10.1C75.5,62.8,74.3,62.6,73.1,62.4z M53.4,46.8c0.7-2.4,1.3-4.7,1.9-7c-1.6-0.3-3-0.6-4.5-0.8
		c-0.7,2.4-1.3,4.6-2,6.9C50.5,46.2,51.9,46.5,53.4,46.8z M43.5,37.5c-0.7,2.3-1.3,4.6-2,6.9c1.6,0.3,3,0.6,4.5,0.9
		c0.7-2.4,1.3-4.6,2-6.9C46.4,38,45,37.8,43.5,37.5z M80.5,46.5c1.4-3.1-1.1-4.8-1.8-7.1c-0.1,0-0.2,0-0.4,0
		c-0.5,2.1-0.9,4.2-1.4,6.3C78.2,46.1,79.3,46.3,80.5,46.5z M9.3,12.8c1.3,0,2.4,0,3.5,0c0-1.2,0-2.2,0-3.2
		C11.7,10.6,10.6,11.6,9.3,12.8z"/>
	<path d="M13,36.6c3.9,0,7.7,0,11.7,0c0-2,0-3.8,0-5.8c1.1,0,1.9,0,2.9,0c0,3,0,5.9,0,8.8c-5.9,0-11.7,0-17.6,0c0-6.4,0-12.7,0-19.1
		c2.4,0,4.7,0,7.2,0c0,0.9,0,1.8,0,2.8c-1.4,0-2.7,0-4.2,0C13,27.7,13,32.1,13,36.6z"/>
	<path d="M15,28.7c0.6-0.6,1.3-1.2,2-1.9c0.5,0.5,1.1,1.1,1.8,1.7c3-3.1,6-6.2,9-9.4c0.9,0.9,1.5,1.6,2,2.2
		c-3.6,3.6-7.4,7.4-11.2,11.2C17.6,31.4,16.3,30.1,15,28.7z"/>
	<path d="M64.9,90c-4.1,0-7.4-3.2-7.5-7.3c0-4.1,3.3-7.5,7.4-7.5c4.1,0,7.4,3.3,7.4,7.4C72.3,86.7,69,90,64.9,90z M64.8,87.1
		c2.4,0,4.5-2,4.5-4.5c0-2.4-2.1-4.5-4.5-4.5c-2.3,0-4.4,2.1-4.4,4.4C60.3,85,62.4,87.1,64.8,87.1z"/>
</g>
</svg>
