<?xml version="1.0" encoding="utf-8"?>
<!-- Generator: Adobe Illustrator 21.0.0, SVG Export Plug-In . SVG Version: 6.00 Build 0)  -->
<svg version="1.1" id="Capa_1" xmlns="http://www.w3.org/2000/svg" xmlns:xlink="http://www.w3.org/1999/xlink" x="0px" y="0px"
	 viewBox="0 0 100 100" style="enable-background:new 0 0 100 100;" xml:space="preserve">
<g>
	<path d="M96,50.1C96,75.4,75.3,96,50,96C24.7,96,4,75.3,4,50.1C4,24.6,24.6,4,50,4C75.4,4,96,24.7,96,50.1z M84.8,74.9
		c12.4-17,10.9-42.8-7.7-58.1C59,1.9,32.8,4.3,17.4,22.1C2.3,39.6,5.8,63.2,15.2,74.6c3.9-10.4,11-17.7,21.3-22.1
		c-9.4-9.5-7.4-22.3-0.4-29.1c7.5-7.2,19.2-7.4,27-0.7c7.2,6.2,10.5,19.5,0.4,29.8C73.8,56.9,80.9,64.3,84.8,74.9z M49.9,92.9
		c12.5-0.2,23-4.8,31.6-13.8c0.8-0.9,1-1.6,0.6-2.7C78.6,66.3,71.9,59.3,62,55.3c-1-0.4-1.8-0.4-2.8,0.1c-6.1,3-12.2,3-18.3,0
		c-0.7-0.4-1.9-0.4-2.6-0.1C28.3,59.1,21.6,66.1,18,76.1c-0.5,1.3-0.3,2.1,0.7,3.2C27.2,88.2,37.6,92.7,49.9,92.9z M50.1,20.9
		c-9.3,0-16.9,7.5-16.9,16.7c-0.1,9.3,7.4,16.9,16.8,17c9.3,0.1,16.9-7.5,16.9-16.8C66.9,28.5,59.3,20.9,50.1,20.9z"/>
</g>
</svg>
