<?xml version="1.0" encoding="utf-8"?>
<!-- Generator: Adobe Illustrator 21.0.0, SVG Export Plug-In . SVG Version: 6.00 Build 0)  -->
<svg version="1.1" id="Capa_1" xmlns="http://www.w3.org/2000/svg" xmlns:xlink="http://www.w3.org/1999/xlink" x="0px" y="0px"
	 viewBox="0 0 100 100" style="enable-background:new 0 0 100 100;" xml:space="preserve">
<style type="text/css">
	.st0{fill:#FFFFFF;}
</style>
<g>
	<path class="st0" d="M44.9,55c3.4-1.5,6.5-3.1,9.8-4.3c8.4-3.2,17.2-4,26.1-3.4c4.7,0.3,9.4,0.5,14.1,0.9c0.7,0.1,1.9,0.5,2.1,1.1
		C97,50,96.5,51,96,51.6c-2.4,2.5-5.1,4.8-7.5,7.4c-3.9,4.3-10,5.7-15.1,2.3c-2.8,1.2-5.2,2.6-7.9,3.4c-4.1,1.2-7.9,0.1-11.3-2.4
		c-0.8-0.6-1.5-0.7-2.5-0.4c-4.7,1.4-9.4,2.7-14.5,4.2c2.5,2.5,4.9,4.7,7.1,6.9c3.4,3.5,4.6,7.8,2.6,12.2c-2.2,4.9-6,8.7-11,10.9
		c-3.8,1.6-7.8,1-10.7-1.8c-3.3-3.1-7-3.5-11.1-2.8c-1.3,0.2-2.7,0.2-4,0.3c-1.5,0.1-2.1-0.6-2-2c0.2-2.3,0.3-4.6,0.6-6.9
		c0.3-2.8-0.5-5.1-2.3-7.1C1.9,70.6,2,64.1,6.8,59.3c1.2-1.2,2.4-2.4,3.5-3.6c5-4.9,11.8-4.9,16.8,0c2.2,2.2,4.3,4.4,6.7,6.8
		c1.1-3.6,2-7,3-10.3c0.1-0.3,0.1-0.5,0.2-0.8c1-2.7,1.1-5-0.5-7.9c-3.1-5.3-2.1-10.7,1.6-15.6c0.3-0.3,0.5-0.7,0.8-1
		c-2.4-3.6-2.9-7.4-1.1-11.4c0.4-1,1-1.9,1.7-2.7c3-3.2,6.1-6.3,9.2-9.4c0.4-0.4,1.3-0.7,1.8-0.5c0.5,0.2,1.1,1,1.1,1.5
		c0.4,7.8,1,15.5,1,23.3c0,9.1-2.7,17.6-7.1,25.6C45.4,53.9,45.2,54.4,44.9,55z M33,93.2c-1.6-1.6-3.2-3.1-4.8-4.7
		c-0.8-0.8-1.3-1.7-0.4-2.7c1-1.1,1.9-0.5,2.8,0.4c2,2.1,4,4.1,6.1,6.3c2.4-2.3,4.7-4.4,7.3-6.8c-0.9-0.7-1.5-1-2-1.5
		c-1.7-1.7-3.4-3.3-5-5.1c-0.4-0.5-0.5-1.7-0.2-2.2c0.6-0.9,1.6-0.8,2.4,0c0.4,0.4,0.9,0.8,1.3,1.3c1.2,1.3,2.4,2.7,3.6,4
		c0.2-0.1,0.3-0.3,0.5-0.4c0.2-2.2-0.5-4.2-2-5.9c-0.9-1-1.9-1.9-2.8-2.9c-5-5-10-10-15-15c-3.8-3.8-9.8-3.4-12.6,0.8
		c0.4,0.4,0.7,0.8,1.1,1.1c1.8,1.8,3.5,3.5,5.3,5.3c0.8,0.8,1.1,1.7,0.2,2.5c-0.9,0.8-1.8,0.5-2.6-0.3c-0.3-0.3-0.7-0.7-1-1
		c-1.8-1.8-3.5-3.6-5.2-5.4c-4.2,3-4.7,8.6-1.2,12.4c2.6,2.8,3.7,6.1,3.3,9.9c-0.2,1.7-0.3,3.4-0.4,5.2c1-0.1,1.8-0.2,2.5-0.3
		c4.8-0.8,9.3-0.3,13,3.4C28.5,93.2,30.6,93.7,33,93.2z M38.7,57.8c0.1,0.1,0.3,0.2,0.4,0.3c0.1-0.2,0.2-0.5,0.4-0.7
		c5.3-7.6,8.9-16,9.6-25.2c0.5-6.1,0-12.3,0-18.4c0-1.7-0.3-3.4-0.4-5.2c-2.2,2.2-4.3,4.2-6.4,6.3c-2.9,3-3,7.3-0.4,10.6
		c1.3,1.7,1.3,2-0.2,3.5c-4.5,4.3-4.9,10.9-0.9,15.6c0.9,1.1,1,2.1,0.6,3.4C40.5,51.1,39.6,54.5,38.7,57.8z M91.7,51.5
		c-17.1-3.5-43.6,1.7-49.6,9.9c3.5-1,6.8-1.9,10.1-2.9c1.2-0.4,2.2-0.3,3.2,0.6c4.6,3.9,11.2,3.7,15.4-0.5c1.9-1.9,1.9-1.9,4-0.3
		c2.7,2,6.3,2.5,8.9,0.5C86.5,56.6,89,54,91.7,51.5z"/>
</g>
</svg>
