<?xml version="1.0" encoding="utf-8"?>
<!-- Generator: Adobe Illustrator 21.0.0, SVG Export Plug-In . SVG Version: 6.00 Build 0)  -->
<svg version="1.1" id="Capa_1" xmlns="http://www.w3.org/2000/svg" xmlns:xlink="http://www.w3.org/1999/xlink" x="0px" y="0px"
	 viewBox="0 0 100 100" style="enable-background:new 0 0 100 100;" xml:space="preserve">
<g>
	<path d="M61.6,41.6c-0.4,0-0.8,0-1.2,0c0-1.8,0-3.4,0-5.1c0-0.8-0.1-1.7-0.3-2.5c-1-4-3.5-6.7-7.4-7.8c-4-1.1-7.5-0.1-10.3,2.9
		c-1.9,2-2.9,4.4-2.9,7.1c0,1.7,0,3.5,0,5.3c-0.5,0-0.8,0-1.2,0c-2.3,0-4,1.7-4,4c0,6.1,0,12.1,0,18.2c0,2.3,1.7,4,4,4
		c7.8,0,15.6,0,23.4,0c2.3,0,4-1.7,4-4c0-6,0-12.1,0-18.1C65.7,43.3,64,41.6,61.6,41.6z M56.9,41.6c-4.6,0-9.2,0-13.8,0l-0.1-0.3
		c0-1.8,0-3.6,0-5.4c0.1-3.7,3.2-6.6,6.9-6.5c3.7,0,6.8,2.9,6.9,6.5C57,37.8,56.9,39.6,56.9,41.6z"/>
	<path d="M50,3C24,3,3,24,3,50c0,26,21,47,47,47c26,0,47-21,47-47C97,24,76,3,50,3z M81.5,81.5C73.5,89.6,62.3,94.6,50,94.6
		c-12.3,0-23.5-5-31.5-13.1C10.4,73.5,5.4,62.3,5.4,50c0-12.3,5-23.5,13.1-31.5C26.5,10.4,37.7,5.4,50,5.4c12.3,0,23.5,5,31.5,13.1
		c8.1,8.1,13.1,19.2,13.1,31.5C94.6,62.3,89.6,73.5,81.5,81.5z"/>
</g>
</svg>
