<?xml version="1.0" encoding="utf-8"?>
<!-- Generator: Adobe Illustrator 21.0.0, SVG Export Plug-In . SVG Version: 6.00 Build 0)  -->
<svg version="1.1" id="Capa_1" xmlns="http://www.w3.org/2000/svg" xmlns:xlink="http://www.w3.org/1999/xlink" x="0px" y="0px"
	 viewBox="0 0 402 79.8" style="enable-background:new 0 0 402 79.8;" xml:space="preserve">
<style type="text/css">
	.st0{fill:#244B6C;}
	.st1{fill:#FFFFFF;}
	.st2{fill:#2C6994;}
	.st3{fill:#82C600;}
	.st4{fill:#E1FA00;}
	.st5{fill:#2B6993;}
	.st6{fill:#81D400;}
	.st7{fill:#2B6A93;}
	.st8{fill:#2C6B94;}
	.st9{fill:#81D500;}
</style>
<g>
	<path class="st0" d="M16.8,39.4c8-4.8,20.5-8.7,39.4-6.7c2-2.6,3.1-5.6,3.1-8.8c0-10.4-12.1-18.9-27.1-18.9S5.2,13.3,5.2,23.8
		C5.2,30.2,9.8,35.9,16.8,39.4z"/>
	<polygon class="st1" points="9,20.8 55.5,20.8 31.4,7 	"/>
	<path class="st1" d="M48.6,32.1v-8.8h-3.4v8.7C46.3,32.1,47.4,32.1,48.6,32.1z"/>
	<path class="st1" d="M42.6,32.2v-8.8h-3.4v9.1C40.2,32.3,41.4,32.2,42.6,32.2z"/>
	<path class="st1" d="M37.4,32.6v-9.3H34v9.8C35.1,33,36.2,32.8,37.4,32.6z"/>
	<path class="st1" d="M31.4,33.7V23.4h-3.4v11.2C29,34.2,30.2,33.9,31.4,33.7z"/>
	<path class="st1" d="M25.4,35.4v-12h-3.4v13.4C23,36.3,24.1,35.8,25.4,35.4z"/>
	<path class="st1" d="M19.3,38V23.4h-3.4v15.5h1.8C18.2,38.5,18.8,38.2,19.3,38z"/>
	<path class="st2" d="M3,56c0,0,7.9-10.8,28.4-13.8c18.1-2.6,17.2,10.3,17.2,10.3s1.7,13.8-10.3,13.8S19.3,51.7,3,56z"/>
	<path class="st3" d="M4.7,50.9c0,0,12-23.2,53.3-18.1s32.7,16.3,32.7,16.3s-12.9,2.6-18.9,7.7c-6,5.2-8.6,10.3-12.9,9.5
		s-7.7-4.3-6-14.6S40,28.5,4.7,50.9z"/>
	<path class="st4" d="M73,47.9l-0.1-1c-0.2-1.9-1.8-3.3-3.7-3.1l-1.7,0.1v-1.9c0-1.8-1.5-3.3-3.3-3.3h-0.4c-1.8,0-3.3,1.5-3.3,3.3
		V44l-1.7-0.2c-2.2-0.2-4.1,1.4-4.3,3.6c-0.2,2.2,1.4,4.1,3.6,4.3l0.7,0.1l-1.3,1.8c-1.1,1.6-0.8,3.8,0.8,4.9
		c1.6,1.1,3.8,0.8,4.9-0.8l0.4-0.6l0.4,0.6c1.1,1.6,3.3,2,4.9,0.8c1.6-1.1,2-3.3,0.8-4.9l-1.3-1.8l1.2-0.1
		C71.8,51.5,73.2,49.8,73,47.9z M63.6,52.6c-1.2,0-2.2-1.2-2.2-2.6s1-2.6,2.2-2.6s2.2,1.2,2.2,2.6S64.8,52.6,63.6,52.6z"/>
	<path class="st4" d="M50.7,51.3c-0.8,0.3-1.5,0.7-2.1,1.3c-0.6,0.5-1.1,1.3-1.2,2.1c-0.2,1.6,0.7,3.2,2,4.1
		c0.3,0.3,0.7,0.4,1.1,0.5c0.4,0,0.8,0.1,1.2,0.1c0.8-0.1,1.6-0.3,2.3-0.7c1.5-0.7,2.8-1.7,3.9-2.8l0.2,0.3
		c-1.9,1.3-3.7,3.1-4.9,5.1c-0.6,1-1,2.1-1.2,3.3c-0.1,0.6-0.1,1.2,0,1.7c0,0.6,0.2,1.2,0.3,1.7c0.2,0.6,0.5,1.1,0.7,1.6
		c0.3,0.5,0.6,1,1,1.5c0.7,0.9,1.6,1.7,2.7,2.2c1.1,0.4,2.3,0.4,3.5,0c1.1-0.4,2.2-1,3.1-1.8c-0.9,0.8-1.9,1.5-3,1.9
		c-1.1,0.4-2.4,0.5-3.6,0.1c-1.2-0.4-2.1-1.2-2.9-2.2c-0.4-0.5-0.7-1-1-1.5c-0.2-0.6-0.6-1.1-0.7-1.7c-0.2-0.6-0.4-1.2-0.4-1.8
		c-0.1-0.6,0-1.2,0-1.8c0.2-1.2,0.6-2.4,1.2-3.4c1.2-2.1,3-3.8,5-5.2l0.2,0.3c-1.2,1.1-2.5,2.1-4.1,2.8c-0.8,0.4-1.6,0.6-2.4,0.7
		c-0.4,0.1-0.8,0-1.3-0.1c-0.4-0.2-0.8-0.3-1.1-0.6c-0.7-0.5-1.2-1.2-1.6-1.9c-0.4-0.8-0.6-1.6-0.4-2.4c0.2-0.8,0.7-1.5,1.3-2.1
		C49.2,52,50,51.6,50.7,51.3z"/>
	<path class="st4" d="M57.6,50.5c-2.1,1.3-3.9,3.1-5.4,5c-0.7,1-1.4,2-1.9,3.1c-0.5,1.1-0.9,2.3-1,3.5c-0.1,0.6-0.1,1.2-0.2,1.8
		c0,0.6,0,1.2,0.1,1.8c0.1,1.2,0.5,2.4,0.9,3.5c0.4,1.1,1,2.2,1.7,3.3c0.7,1,1.4,2,2.3,2.9c-1.9-1.6-3.4-3.7-4.3-6
		c-0.5-1.2-0.8-2.4-1-3.6c-0.1-0.6-0.1-1.3-0.1-1.9c0.1-0.6,0-1.3,0.2-1.9c0.2-1.3,0.6-2.4,1.1-3.6c0.6-1.1,1.2-2.2,2-3.2
		C53.5,53.3,55.4,51.7,57.6,50.5z"/>
	<path class="st3" d="M68.8,35.8c0,0-2.6-6.9-5.2-9.5c-2.6-2.6-1.7-2.6-1.7-2.6s6,4.3,7.7,9.5s1.7,3.4,1.7,3.4L68.8,35.8z"/>
	<path class="st4" d="M69.2,44c3-3.6,6.3-6.9,10.3-9.4c2-1.2,4.2-2.2,6.6-2.2c2.4,0,4.7,1.3,6.2,3.2c0.7,1,1.3,2,1.6,3.2
		c0.3,1.1,0.6,2.3,0.6,3.5c0.1,1.2,0,2.4-0.1,3.5c-0.2,1.2-0.6,2.3-1.1,3.4c-0.5,1.1-1.2,2-2.1,2.9c-0.9,0.8-1.9,1.4-3,1.8
		c-2.3,0.8-4.7,0.4-6.9-0.3c2.2,0.6,4.7,0.9,6.8,0.1c1.1-0.4,2.1-1,2.9-1.8c0.8-0.8,1.5-1.8,1.9-2.8c0.5-1,0.9-2.1,1.1-3.3
		c0.2-1.1,0.2-2.3,0.1-3.4c-0.1-1.2-0.3-2.3-0.6-3.4c-0.3-1.1-0.9-2.1-1.5-3c-1.4-1.8-3.5-3-5.8-3.1c-2.3,0-4.5,1-6.5,2.1
		c-2,1.2-3.8,2.6-5.5,4.2C72.4,40.6,70.7,42.2,69.2,44z"/>
	<path class="st4" d="M71.8,49.2c1.5-0.4,3-1.1,4.3-1.9c1.3-0.8,2.6-1.8,3.6-3c1-1.2,1.8-2.5,2.4-4c0.4-1.5,0.8-3,0.7-4.6l0-1.2
		l-0.1-1.2c-0.1-0.4-0.1-0.8-0.2-1.2l-0.3-1.1c-0.5-1.5-1.2-2.9-2.4-3.9c-1.1-1-2.6-1.7-4.1-2c-1.5-0.3-3.1-0.3-4.7-0.1
		c1.5-0.3,3.2-0.4,4.7-0.1c1.6,0.3,3.1,0.9,4.3,2c1.2,1.1,2,2.5,2.5,4l0.3,1.2c0.1,0.4,0.1,0.8,0.2,1.2l0.2,1.2l0,1.2
		c0.1,1.6-0.3,3.2-0.8,4.7c-0.6,1.5-1.4,2.9-2.5,4.1C77.8,46.9,74.9,48.4,71.8,49.2z"/>
	<path class="st4" d="M90.7,36.3c0.7-0.7,1.3-1.5,1.9-2.3c0.5-0.8,0.9-1.7,1.1-2.7c0.2-0.9,0.1-1.9-0.3-2.8
		c-0.2-0.4-0.5-0.8-0.8-1.2c-0.3-0.4-0.6-0.7-1-0.9c-0.8-0.5-1.8-0.6-2.7-0.3c-0.9,0.3-1.7,0.9-2.5,1.5c-0.7,0.6-1.4,1.4-2,2.1
		c-0.6,0.8-1.2,1.5-1.8,2.4c1-1.7,2.1-3.4,3.6-4.7c0.7-0.7,1.6-1.3,2.6-1.6c1-0.4,2.1-0.3,3,0.3c0.4,0.3,0.8,0.6,1.1,1
		c0.4,0.4,0.6,0.8,0.8,1.3c0.4,1,0.5,2,0.3,3C93.5,33.4,92.2,35,90.7,36.3z"/>
	<path class="st5" d="M186.5,28c-1,1-1.9,1.4-2.8,1.4c-0.8,0-1.4-0.5-2-1.4c-0.6-0.9-0.9-2.3-0.9-4.1c0-2.5,0.5-4.4,1.6-5.9
		c1.1-1.4,2.5-2.2,4.1-2.2c0.8,0,1.7,0.1,2.6,0.4v7.8C188.4,25.7,187.5,27,186.5,28z M189.7,31.8h2.8c-0.4-1.4-0.6-3.1-0.6-5.3V13.6
		h-2.7c-0.3,0-0.5-0.1-0.7-0.1c-1-0.1-1.8-0.2-2.3-0.2c-1.8,0-3.2,0.5-4.4,1.4c-1.2,1-2.1,2.3-2.8,3.9c-0.7,1.7-1.1,3.5-1.1,5.6
		c0,2.7,0.5,4.6,1.6,6c1.1,1.3,2.3,2,3.6,2c1,0,2-0.4,3.2-1.2c1.1-0.8,2.1-1.9,2.9-3.4C189.3,29.4,189.5,30.8,189.7,31.8z
		 M167.5,32.3c2.3,0,4.1-0.5,5.1-1.5c1.1-1,1.6-2.3,1.6-3.9c0-1.2-0.3-2.2-1-3c-0.7-0.8-1.8-1.5-3.5-2.2l-1.8-0.7
		c-1.2-0.5-2.1-1-2.7-1.3c-0.6-0.4-0.8-0.9-0.8-1.6c0-0.7,0.3-1.2,1-1.7c0.6-0.4,1.5-0.7,2.7-0.7c1.6,0,3.2,0.4,5,1.1V14
		c-1.5-0.6-3.2-0.8-4.9-0.8c-2.3,0-3.9,0.5-5,1.4c-1,1-1.5,2.2-1.5,3.7c0,1.1,0.3,2,0.8,2.7c0.5,0.7,1.8,1.6,3.8,2.4l1.9,0.8
		l0.9,0.4c1.1,0.5,1.8,0.9,2.1,1.3c0.3,0.3,0.4,0.8,0.4,1.2c0,0.7-0.3,1.4-0.9,1.8c-0.6,0.5-1.6,0.7-2.9,0.7c-0.8,0-1.8-0.2-3-0.5
		c-1.2-0.3-2.3-0.9-3.4-1.7v3.2C163.3,31.8,165.5,32.3,167.5,32.3z M151.2,28c-1,1-1.9,1.4-2.8,1.4c-0.8,0-1.4-0.5-2-1.4
		c-0.6-0.9-0.9-2.3-0.9-4.1c0-2.5,0.5-4.4,1.6-5.9c1.1-1.4,2.5-2.2,4.1-2.2c0.8,0,1.7,0.1,2.6,0.4v7.8C153.1,25.7,152.2,27,151.2,28
		z M154.4,31.8h2.8c-0.4-1.4-0.6-3.1-0.6-5.3V13.6h-2.7c-0.3,0-0.5-0.1-0.7-0.1c-1-0.1-1.8-0.2-2.3-0.2c-1.8,0-3.2,0.5-4.4,1.4
		c-1.2,1-2.1,2.3-2.8,3.9c-0.7,1.7-1.1,3.5-1.1,5.6c0,2.7,0.5,4.6,1.6,6c1.1,1.3,2.3,2,3.6,2c1,0,2-0.4,3.2-1.2
		c1.1-0.8,2.1-1.9,2.9-3.4C154,29.4,154.2,30.8,154.4,31.8z M139.1,28.5c-1.6,1-3.1,1.5-4.6,1.5c-1.1,0-2.2-0.4-3.1-1.3
		c-0.9-0.9-1.7-2.2-2.3-3.9c-0.6-1.7-0.9-3.6-0.9-5.7c0-2,0.3-3.9,0.9-5.6c0.6-1.7,1.4-3,2.3-3.9c1-0.9,2-1.3,3.2-1.3
		c1.5,0,3.1,0.5,4.6,1.5v-3c-1.7-0.7-3.2-1.1-4.5-1.1c-1.8,0-3.4,0.5-4.8,1.6c-1.5,1.1-2.6,2.6-3.4,4.7s-1.2,4.4-1.2,7
		c0,2.6,0.4,5,1.2,7.1c0.8,2.1,2,3.7,3.4,4.7c1.5,1.1,3.1,1.6,4.8,1.6c1.3,0,2.8-0.4,4.5-1.1V28.5z"/>
	<path class="st6" d="M201.5,17.5c1-1,1.9-1.4,2.8-1.4c0.8,0,1.5,0.5,2.1,1.4s0.9,2.3,0.9,4.1c0,2.5-0.6,4.5-1.7,5.9
		c-1.1,1.4-2.5,2.2-4.1,2.2c-0.8,0-1.7-0.1-2.7-0.4v-7.8C199.6,19.7,200.5,18.4,201.5,17.5z M198.8,5.6h-2.7v26.2h2.7
		c0.3,0,0.5,0.1,0.7,0.1c1,0.1,1.8,0.2,2.3,0.2c1.8,0,3.2-0.5,4.4-1.4c1.2-1,2.1-2.3,2.9-3.9c0.7-1.6,1.1-3.5,1.1-5.6
		c0-2.7-0.5-4.6-1.6-6s-2.3-2-3.6-2c-1,0-2,0.4-3.1,1.2c-1.1,0.8-2.1,1.9-2.9,3.4V5.6z"/>
	<path class="st3" d="M292.5,28c-1,1-1.9,1.4-2.8,1.4c-0.8,0-1.4-0.5-2-1.4c-0.6-0.9-0.9-2.3-0.9-4.1c0-2.5,0.5-4.4,1.6-5.9
		c1.1-1.4,2.5-2.2,4.1-2.2c0.8,0,1.7,0.1,2.6,0.4v7.8C294.4,25.7,293.5,27,292.5,28z M295.7,31.8h2.8c-0.4-1.4-0.6-3.1-0.6-5.3V13.6
		h-2.7c-0.3,0-0.5-0.1-0.7-0.1c-1-0.1-1.8-0.2-2.3-0.2c-1.8,0-3.2,0.5-4.4,1.4c-1.2,1-2.1,2.3-2.8,3.9c-0.7,1.7-1.1,3.5-1.1,5.6
		c0,2.7,0.5,4.6,1.6,6c1.1,1.3,2.3,2,3.6,2c1,0,2-0.4,3.2-1.2c1.1-0.8,2.1-1.9,2.9-3.4C295.4,29.4,295.5,30.8,295.7,31.8z
		 M280.5,28.4c-1.5,0.6-2.6,0.9-3.1,1c-0.6,0.1-1.1,0.1-1.7,0.1c-1.9,0-3.4-0.7-4.3-2.2c-0.9-1.5-1.4-3-1.4-4.7
		c0-1.2,0.2-2.4,0.7-3.6c0.5-1.2,1.1-2,2-2.6c0.9-0.5,1.8-0.8,2.8-0.8c1.5,0,3.1,0.5,5,1.4v-2.9c-1.8-0.7-3.6-1.1-5.3-1.1
		c-2.2,0-4.2,0.9-5.7,2.7c-1.6,1.8-2.4,4.1-2.4,6.9c0,1.8,0.4,3.5,1.1,4.9c0.7,1.4,1.7,2.6,2.9,3.4c1.3,0.8,2.7,1.3,4.3,1.3
		c1.6,0,3.3-0.3,5.1-1V28.4z M252,31.8V21.2c0.7-1.5,1.6-2.8,2.7-3.8c1.1-1,2.1-1.5,3-1.5c0.5,0,0.9,0.2,1.3,0.5
		c0.4,0.4,0.7,0.8,0.8,1.4c0.1,0.6,0.2,1.7,0.2,3.4v10.5h2.7V21.7c0-2.7-0.2-4.5-0.5-5.4c-0.3-0.9-0.9-1.7-1.6-2.2
		c-0.8-0.6-1.6-0.9-2.6-0.9c-1.1,0-2.2,0.4-3.2,1.2c-1.1,0.8-2,1.9-2.8,3.3v-4h-2.7v18.1H252z M239.5,28c-1,1-1.9,1.4-2.8,1.4
		c-0.8,0-1.4-0.5-2-1.4c-0.6-0.9-0.9-2.3-0.9-4.1c0-2.5,0.5-4.4,1.6-5.9s2.5-2.2,4.1-2.2c0.8,0,1.7,0.1,2.6,0.4v7.8
		C241.4,25.7,240.5,27,239.5,28z M242.7,31.8h2.8c-0.4-1.4-0.6-3.1-0.6-5.3V13.6h-2.7c-0.3,0-0.5-0.1-0.7-0.1
		c-1-0.1-1.8-0.2-2.3-0.2c-1.8,0-3.2,0.5-4.4,1.4c-1.2,1-2.1,2.3-2.8,3.9c-0.7,1.7-1.1,3.5-1.1,5.6c0,2.7,0.5,4.6,1.6,6
		c1.1,1.3,2.3,2,3.6,2c1,0,2-0.4,3.2-1.2c1.1-0.8,2.1-1.9,2.9-3.4C242.3,29.4,242.5,30.8,242.7,31.8z M226,31.8v-2.5h-5V5.6h-7.5
		v2.5h4.8v23.7H226z"/>
	<path class="st3" d="M379.4,33.7c0.7,0.1,1.3,0.2,2.1,0.2c2.3,0,3.9-0.6,4.9-1.7c1-1.1,1.5-2.5,1.5-4.1c0-2.1-1-3.8-3-5.2l-1-0.6
		l-1.1-0.8l-0.9-0.6c-0.7-0.5-1.4-1-1.8-1.5c-0.5-0.6-0.7-1.3-0.7-2.1c0-0.8,0.3-1.6,0.9-2.2c0.6-0.6,1.4-0.9,2.4-0.9
		c1.3,0,2.6,0.3,3.9,0.9v-2.3c-1.2-0.4-2.5-0.6-3.8-0.6c-2,0-3.5,0.5-4.4,1.6s-1.4,2.4-1.4,3.9c0,2.1,1.1,3.9,3.2,5.3l1.2,0.8
		l1.2,0.8c1.1,0.8,1.9,1.4,2.3,2.1c0.4,0.6,0.6,1.3,0.6,2c0,0.6-0.2,1.2-0.5,1.7c-0.3,0.5-0.7,0.9-1.3,1.2c-0.6,0.3-1.2,0.4-1.8,0.4
		c-1.5,0-3.2-0.5-5.1-1.5v2.5C377.9,33.3,378.8,33.5,379.4,33.7z M369.2,33.3c0.4-0.4,0.6-0.9,0.6-1.5c0-0.6-0.2-1.1-0.6-1.5
		c-0.4-0.4-0.8-0.6-1.3-0.6c-0.5,0-1,0.2-1.3,0.6c-0.4,0.4-0.6,0.9-0.6,1.5c0,0.6,0.2,1.1,0.6,1.5c0.4,0.4,0.8,0.6,1.3,0.6
		S368.8,33.7,369.2,33.3z M352.8,18.9l0.5-2.1l0.5,2.1l2.2,7.8h-5.3L352.8,18.9z M350.1,28.8h6.4l1.2,4.5h2.5l-5.6-20.5h-2.4
		l-5.6,20.5h2.3L350.1,28.8z M340.3,33.3c0.4-0.4,0.6-0.9,0.6-1.5c0-0.6-0.2-1.1-0.6-1.5c-0.4-0.4-0.8-0.6-1.3-0.6
		c-0.5,0-1,0.2-1.3,0.6c-0.4,0.4-0.6,0.9-0.6,1.5c0,0.6,0.2,1.1,0.6,1.5c0.4,0.4,0.8,0.6,1.3,0.6C339.5,33.9,340,33.7,340.3,33.3z
		 M321.8,33.7c0.7,0.1,1.3,0.2,2.1,0.2c2.3,0,3.9-0.6,4.9-1.7c1-1.1,1.5-2.5,1.5-4.1c0-2.1-1-3.8-3-5.2l-1-0.6l-1.1-0.8l-0.9-0.6
		c-0.7-0.5-1.4-1-1.8-1.5c-0.5-0.6-0.7-1.3-0.7-2.1c0-0.8,0.3-1.6,0.9-2.2c0.6-0.6,1.4-0.9,2.4-0.9c1.3,0,2.6,0.3,3.9,0.9v-2.3
		c-1.2-0.4-2.5-0.6-3.8-0.6c-2,0-3.5,0.5-4.4,1.6s-1.4,2.4-1.4,3.9c0,2.1,1.1,3.9,3.2,5.3l1.2,0.8l1.2,0.8c1.1,0.8,1.9,1.4,2.3,2.1
		c0.4,0.6,0.6,1.3,0.6,2c0,0.6-0.2,1.2-0.5,1.7c-0.3,0.5-0.7,0.9-1.3,1.2c-0.6,0.3-1.2,0.4-1.8,0.4c-1.5,0-3.2-0.5-5.1-1.5v2.5
		C320.3,33.3,321.2,33.5,321.8,33.7z"/>
	<path class="st7" d="M326,64.9c1.7,0,2.9-0.4,3.7-1.1c0.8-0.7,1.1-1.6,1.1-2.8c0-0.9-0.2-1.6-0.7-2.1c-0.5-0.6-1.3-1.1-2.5-1.6
		l-1.3-0.5c-0.9-0.4-1.5-0.7-1.9-1c-0.4-0.3-0.6-0.6-0.6-1.1c0-0.5,0.2-0.9,0.7-1.2s1.1-0.5,1.9-0.5c1.1,0,2.3,0.3,3.5,0.8v-2
		c-1.1-0.4-2.3-0.6-3.5-0.6c-1.6,0-2.8,0.3-3.5,1c-0.7,0.7-1.1,1.6-1.1,2.6c0,0.8,0.2,1.4,0.6,1.9c0.4,0.5,1.3,1.1,2.7,1.7l1.3,0.6
		l0.7,0.3c0.8,0.4,1.3,0.7,1.5,0.9c0.2,0.2,0.3,0.5,0.3,0.9c0,0.5-0.2,1-0.6,1.3c-0.4,0.4-1.1,0.5-2.1,0.5c-0.6,0-1.3-0.1-2.2-0.3
		c-0.9-0.2-1.7-0.6-2.4-1.2v2.3C323,64.5,324.5,64.9,326,64.9z M303.7,61.7c-0.6-0.9-0.9-2.1-0.9-3.7c0-1.6,0.3-2.8,0.9-3.7
		c0.6-0.9,1.4-1.3,2.4-1.3c1,0,1.8,0.4,2.4,1.3c0.6,0.9,0.9,2.1,0.9,3.7c0,1.6-0.3,2.8-0.9,3.7c-0.6,0.9-1.4,1.3-2.4,1.3
		C305.2,63.1,304.3,62.6,303.7,61.7z M310.1,62.9c1-1.3,1.5-2.9,1.5-4.9s-0.5-3.6-1.5-4.9c-1-1.3-2.3-1.9-3.9-1.9
		c-1.6,0-3,0.6-3.9,1.9c-1,1.3-1.5,2.9-1.5,4.9s0.5,3.6,1.5,4.9c1,1.3,2.3,1.9,3.9,1.9C307.8,64.9,309.1,64.2,310.1,62.9z
		 M287.2,64.5l5-12.9h-1.9l-4,10.2l-3.9-10.2h-2.1l5,12.9H287.2z M265,48c0.3,0.2,0.6,0.4,0.8,0.4c0.3,0,0.5-0.1,0.8-0.4
		c0.3-0.2,0.4-0.6,0.4-1.1c0-0.5-0.1-0.8-0.4-1.1c-0.3-0.2-0.6-0.4-0.8-0.4c-0.3,0-0.5,0.1-0.8,0.4c-0.3,0.2-0.4,0.6-0.4,1.1
		C264.6,47.4,264.7,47.7,265,48z M270,64.5v-1.8h-3.2V51.6h-5.1v1.8h3.2v11.1H270z M251.3,62.1c-1,0.7-2,1-2.9,1
		c-0.5,0-0.9-0.1-1.3-0.3c-0.4-0.2-0.7-0.5-0.9-0.9c-0.2-0.4-0.3-1.2-0.3-2.2v-5.2h5.1v-1.8h-5.1v-5.2H244v5.2h-2.9v1.8h2.9v5.2
		c0,1.4,0.2,2.5,0.5,3.2c0.3,0.7,0.8,1.2,1.5,1.5c0.7,0.3,1.4,0.5,2.2,0.5c0.4,0,0.8,0,1.2-0.1c0.4-0.1,1.1-0.3,1.9-0.8V62.1z
		 M230.4,64.5v-1.8h-3.6V45.8h-5.3v1.8h3.4v16.9H230.4z M209.5,51.6v7.5c-0.5,1.1-1.1,2-1.9,2.7c-0.8,0.7-1.5,1.1-2.2,1.1
		c-0.3,0-0.6-0.1-0.9-0.4c-0.3-0.3-0.5-0.6-0.6-1c-0.1-0.4-0.2-1.2-0.2-2.5v-7.5h-1.9v7.2c0,1.9,0.1,3.2,0.3,3.9
		c0.2,0.7,0.6,1.2,1.2,1.6c0.6,0.4,1.2,0.6,1.8,0.6c0.8,0,1.5-0.3,2.3-0.8c0.8-0.5,1.4-1.3,2.1-2.4v2.8h1.9V51.6H209.5z M191.7,62.1
		c-1.1,0.4-1.8,0.7-2.2,0.7c-0.4,0.1-0.8,0.1-1.2,0.1c-1.4,0-2.4-0.5-3-1.6c-0.6-1.1-1-2.2-1-3.3c0-0.9,0.2-1.7,0.5-2.5
		s0.8-1.4,1.4-1.8s1.3-0.6,2-0.6c1.1,0,2.2,0.3,3.6,1V52c-1.3-0.5-2.6-0.8-3.8-0.8c-1.6,0-3,0.6-4.1,1.9c-1.1,1.3-1.7,2.9-1.7,4.9
		c0,1.3,0.2,2.5,0.7,3.5c0.5,1,1.2,1.8,2.1,2.4c0.9,0.6,1.9,0.9,3.1,0.9c1.2,0,2.4-0.2,3.7-0.7V62.1z"/>
	<rect x="115.7" y="38" class="st8" width="283.3" height="1.9"/>
	<path class="st9" d="M76.1,19.1c-0.2,3-0.5,6-0.9,9c-0.2,1.5-0.4,3-0.5,4.5c-0.1,1.5-0.2,3-0.3,4.5c-0.2-1.5-0.3-3-0.3-4.5
		c-0.1-1.5,0.1-3.1,0.3-4.6C74.7,25,75.3,22,76.1,19.1z"/>
	<path class="st3" d="M81.3,4.4c0,0-5.2,2.6-6,6.9s0.8,7.9,0.8,7.9s5.2-3.6,5.2-6.2S79.5,6.2,81.3,4.4z"/>
	<path class="st3" d="M65.8,12.2c0,0,0.9,7.7,4.3,9.5c3.4,1.7,5.3,1.9,5.3,1.9s5,2.4,7.6-0.2s4.3-2.6,4.3-2.6s-2.6-3.4-6-2.6
		s-5.2,4.3-5.2,4.3S76.1,15.6,65.8,12.2z"/>
	<path class="st3" d="M65.8,22.5c0,0,1.7,6.9,3.4,7.7c1.7,0.9,5.2,0,5.2,0S73.5,22.5,65.8,22.5z"/>
	<path class="st3" d="M84.7,25.1c0,0-2.6,5.2-4.3,6c-1.7,0.9-6-0.9-6-0.9S77.8,22.5,84.7,25.1z"/>
	<path class="st9" d="M79.5,7c0,0-1.7,4.3-2.6,7.7c-0.9,3.4-0.9,3.4-0.9,3.4"/>
	<path class="st1" d="M79.5,7c-0.6,1.9-1.2,3.7-1.7,5.6c-0.6,1.8-1,3.7-1.7,5.6c0.1-1,0.3-1.9,0.5-2.9c0.2-1,0.4-1.9,0.7-2.8
		C78,10.6,78.7,8.8,79.5,7z"/>
	<path class="st9" d="M68.8,16.1c0,0,4.3,4.3,4.3,5.2"/>
	<path class="st1" d="M68.8,16.1c0.9,0.7,1.7,1.5,2.5,2.3c0.4,0.4,0.7,0.9,1.1,1.3c0.3,0.5,0.7,0.9,0.7,1.5
		c-0.1-0.3-0.3-0.5-0.5-0.7c-0.2-0.2-0.4-0.4-0.6-0.6L71,18.6C70.2,17.8,69.5,17,68.8,16.1z"/>
	<path class="st9" d="M83.4,20.4c0,0-2.6,0-4.3,1.7"/>
	<path class="st1" d="M83.4,20.4c-0.8,0.2-1.5,0.4-2.2,0.7c-0.4,0.1-0.7,0.3-1,0.5c-0.4,0.2-0.7,0.4-1,0.6c0.4-0.7,1.2-1.2,1.9-1.5
		C81.8,20.3,82.6,20.2,83.4,20.4z"/>
	<path class="st9" d="M67.9,25.5c0,0,3.4,2.6,4.3,4.3"/>
	<path class="st1" d="M67.9,25.5c0.9,0.5,1.7,1.1,2.5,1.8c0.4,0.4,0.7,0.7,1,1.1c0.3,0.4,0.6,0.8,0.8,1.3c-0.3-0.4-0.7-0.8-1-1.1
		c-0.4-0.4-0.7-0.7-1.1-1C69.4,26.9,68.6,26.3,67.9,25.5z"/>
	<path class="st9" d="M81.7,27.2c0,0-2.6,0.9-4.3,2.6"/>
	<path class="st1" d="M81.7,27.2l-2.2,1.3c-0.4,0.2-0.7,0.4-1.1,0.6c-0.4,0.2-0.7,0.5-1.1,0.7c0.5-0.7,1.2-1.3,1.9-1.7
		C80,27.7,80.8,27.4,81.7,27.2z"/>
	<path class="st3" d="M76.1,38c0.5-0.8,1.1-1.5,1.8-2.2c0.7-0.7,1.4-1.3,2.2-1.8c0.8-0.5,1.7-1,2.6-1.2c0.9-0.2,2-0.3,2.9,0.1
		c-1.9,0-3.5,0.9-5,1.9C79,35.7,77.6,36.8,76.1,38z"/>
</g>
</svg>
