<?xml version="1.0" encoding="utf-8"?>
<!-- Generator: Adobe Illustrator 21.0.0, SVG Export Plug-In . SVG Version: 6.00 Build 0)  -->
<svg version="1.1" id="Capa_1" xmlns="http://www.w3.org/2000/svg" xmlns:xlink="http://www.w3.org/1999/xlink" x="0px" y="0px"
	 viewBox="0 0 418 314" style="enable-background:new 0 0 418 314;" xml:space="preserve">
<style type="text/css">
	.st0{fill:#244B6C;}
	.st1{fill:#FFFFFF;}
	.st2{fill:#2C6994;}
	.st3{fill:#82C600;}
	.st4{fill:#E1FA00;}
	.st5{fill:#2B6993;}
	.st6{fill:#81D400;}
	.st7{fill:#2B6A93;}
	.st8{fill:#2C6B94;}
	.st9{fill:#81D500;}
</style>
<g>
	<path class="st0" d="M112,118.7c25.4-15.2,65.3-27.8,125.3-21.4c6.4-8.4,10-18,10-28.1c0-33.3-38.6-60.2-86.3-60.2
		s-86.3,27-86.3,60.2C74.8,89.7,89.6,107.8,112,118.7z"/>
	<polygon class="st1" points="87.1,59.6 235,59.6 158.3,15.8 	"/>
	<path class="st1" d="M213.1,95.7V67.8h-11v27.8C205.7,95.6,209.4,95.6,213.1,95.7z"/>
	<path class="st1" d="M193.9,95.9V67.8h-11v28.9C186.5,96.4,190.2,96.1,193.9,95.9z"/>
	<path class="st1" d="M177.5,97.3V67.8h-11V99C170.1,98.3,173.7,97.8,177.5,97.3z"/>
	<path class="st1" d="M158.3,100.6V67.8h-11v35.7C150.9,102.4,154.5,101.5,158.3,100.6z"/>
	<path class="st1" d="M139.2,106.1V67.8h-11v42.6C131.7,108.9,135.3,107.4,139.2,106.1z"/>
	<path class="st1" d="M120,114.3V67.8h-11v49.3h5.8C116.5,116.1,118.2,115.2,120,114.3z"/>
	<path class="st2" d="M68,171.8c0,0,25.1-34.5,90.4-43.8c57.5-8.2,54.8,32.9,54.8,32.9s5.5,43.8-32.9,43.8S120,158.2,68,171.8z"/>
	<path class="st3" d="M73.5,155.4c0,0,38.3-73.9,169.8-57.5s104.1,52,104.1,52s-41.1,8.2-60.2,24.6s-27.4,32.9-41.1,30.1
		c-13.7-2.7-24.6-13.7-19.2-46.6C232.3,125.3,185.7,84.2,73.5,155.4z"/>
	<path class="st4" d="M290.8,146l-0.3-3.2c-0.5-6-5.9-10.5-11.9-9.9l-5.3,0.5v-5.9c0-5.7-4.6-10.4-10.4-10.4h-1.2
		c-5.7,0-10.4,4.6-10.4,10.4v6.1l-5.5-0.5c-6.9-0.6-13,4.5-13.6,11.4c-0.6,6.9,4.5,13,11.4,13.6l2.3,0.2l-4.1,5.8
		c-3.6,5-2.4,12,2.6,15.6c5,3.6,12,2.4,15.6-2.6l1.4-2l1.4,2c3.6,5,10.6,6.2,15.6,2.6c5-3.6,6.2-10.6,2.6-15.6l-4.1-5.8l3.9-0.3
		C286.9,157.3,291.4,152,290.8,146z M261,160.9c-3.8,0-6.8-3.7-6.8-8.2c0-4.5,3.1-8.2,6.8-8.2c3.8,0,6.8,3.7,6.8,8.2
		C267.9,157.2,264.8,160.9,261,160.9z"/>
	<path class="st4" d="M220,156.8c-2.4,1-4.7,2.3-6.6,4.1c-1.9,1.8-3.4,4-3.8,6.5c-0.7,5,2.3,10.2,6.3,13.1c1,0.8,2.2,1.1,3.4,1.6
		c1.2,0.2,2.5,0.4,3.7,0.2c2.5-0.2,5-1,7.3-2.1c4.6-2.2,8.8-5.4,12.6-8.9l0.8,1c-6.2,4.2-11.7,9.8-15.5,16.2
		c-2,3.2-3.2,6.8-3.9,10.5c-0.2,1.9-0.4,3.7-0.2,5.6c0,1.9,0.6,3.7,1.1,5.5c0.5,1.8,1.5,3.4,2.1,5.2c1,1.6,1.9,3.3,3,4.8
		c2.2,3,5.2,5.6,8.6,6.9c3.5,1.3,7.4,1.2,11,0c3.6-1.2,6.9-3.3,9.8-5.8c-2.8,2.6-6,4.8-9.6,6.2c-3.6,1.3-7.7,1.7-11.4,0.3
		c-3.7-1.3-6.8-4-9.1-7c-1.2-1.5-2.2-3.2-3.2-4.8c-0.8-1.8-1.8-3.5-2.3-5.4c-0.5-1.9-1.1-3.8-1.1-5.7c-0.3-2-0.1-3.9,0.1-5.9
		c0.7-3.8,1.9-7.6,4-10.9c4-6.7,9.6-12.2,16-16.6l0.8,1c-3.9,3.6-8.1,6.8-13,9.1c-2.4,1.1-5,2-7.7,2.1c-1.4,0.2-2.7-0.1-4-0.3
		c-1.3-0.5-2.6-0.9-3.6-1.8c-2.3-1.5-3.7-3.9-5-6.2c-1.1-2.4-1.8-5.1-1.3-7.8c0.5-2.7,2.2-4.9,4.1-6.6
		C215.2,159,217.5,157.7,220,156.8z"/>
	<path class="st4" d="M241.9,154c-6.6,4.3-12.4,9.7-17.2,15.9c-2.3,3.1-4.4,6.5-6,10c-1.5,3.6-2.8,7.3-3.2,11.1
		c-0.4,1.9-0.3,3.9-0.5,5.8c0.1,1.9,0,3.9,0.4,5.8c0.4,3.9,1.5,7.6,2.9,11.3c1.4,3.6,3.2,7.1,5.4,10.4c2.1,3.3,4.6,6.4,7.4,9.1
		c-5.9-5.2-10.7-11.8-13.8-19.1c-1.5-3.7-2.7-7.5-3.1-11.5c-0.4-2-0.3-4-0.4-6c0.2-2,0.1-4,0.5-6c0.5-4,1.9-7.8,3.4-11.5
		c1.8-3.6,3.8-7,6.3-10.1C228.8,163.1,235,157.9,241.9,154z"/>
	<path class="st3" d="M277.5,107.5c0,0-8.2-21.9-16.4-30.1c-8.2-8.2-5.5-8.2-5.5-8.2s19.2,13.7,24.6,30.1c5.5,16.4,5.5,11,5.5,11
		L277.5,107.5z"/>
	<path class="st4" d="M278.8,133.5c9.4-11.4,20.1-22.1,32.7-30.1c6.3-3.9,13.4-7.1,21.1-7.2c7.7,0,15,4.2,19.6,10.2
		c2.3,3,4,6.5,5.1,10.1c1.1,3.6,1.8,7.3,1.9,11.1c0.2,3.7,0.1,7.5-0.4,11.2c-0.7,3.7-1.9,7.3-3.6,10.7c-1.7,3.4-3.9,6.5-6.5,9.1
		c-2.7,2.6-6,4.6-9.6,5.9c-7.2,2.4-15,1.3-22-0.9c7.1,1.9,14.8,2.8,21.8,0.3c3.4-1.3,6.6-3.3,9.2-5.8c2.5-2.6,4.6-5.7,6.2-9
		c1.6-3.3,2.7-6.8,3.4-10.4c0.5-3.6,0.5-7.3,0.3-11c-0.2-3.7-0.9-7.3-1.9-10.8c-1-3.5-2.7-6.8-4.9-9.7c-4.3-5.7-11.3-9.7-18.5-9.8
		c-7.3,0-14.3,3.1-20.6,6.8c-6.3,3.8-12.2,8.4-17.7,13.3C288.9,122.6,283.7,127.9,278.8,133.5z"/>
	<path class="st4" d="M287,149.9c4.9-1.3,9.5-3.4,13.7-6c4.3-2.6,8.2-5.7,11.5-9.4c3.2-3.8,5.7-8.1,7.5-12.7
		c1.4-4.7,2.4-9.6,2.2-14.6l0-3.7l-0.5-3.7c-0.2-1.2-0.2-2.5-0.6-3.7l-1-3.6c-1.6-4.6-3.9-9.2-7.6-12.5c-3.6-3.3-8.3-5.5-13.1-6.5
		c-4.9-1-10-1.1-14.9-0.3c4.9-1,10-1.2,15.1-0.4c5,0.9,9.8,3,13.7,6.4c4,3.4,6.4,8.1,8,12.9l1,3.7c0.4,1.2,0.4,2.5,0.6,3.8l0.5,3.8
		l0,3.8c0.2,5.1-0.9,10.2-2.4,15c-1.9,4.7-4.4,9.2-7.9,13C306.1,142.7,296.8,147.6,287,149.9z"/>
	<path class="st4" d="M347.3,108.9c2.3-2.2,4.2-4.7,5.9-7.3c1.7-2.6,3-5.5,3.6-8.5c0.6-3,0.3-6.1-0.9-8.9c-0.8-1.3-1.4-2.7-2.5-3.8
		c-1-1.2-2.1-2.2-3.3-3c-2.5-1.6-5.7-2-8.5-0.9c-2.9,0.9-5.4,2.8-7.8,4.8c-2.4,2-4.5,4.3-6.5,6.7c-2,2.4-3.9,4.9-5.6,7.6
		c3.1-5.5,6.7-10.7,11.4-15.1c2.3-2.2,5-4.1,8.1-5.2c3.1-1.2,6.8-0.9,9.6,1c1.4,0.9,2.6,2.1,3.6,3.3c1.1,1.2,1.9,2.7,2.7,4.1
		c1.3,3,1.6,6.5,0.8,9.6C356.3,99.6,352,104.8,347.3,108.9z"/>
	<path class="st5" d="M107,253.3c-1.4,1.4-2.8,2.1-4,2.1c-1.1,0-2.1-0.7-2.9-2c-0.9-1.3-1.3-3.3-1.3-5.9c0-3.6,0.8-6.4,2.4-8.5
		c1.6-2.1,3.6-3.1,5.9-3.1c1.2,0,2.4,0.2,3.8,0.6v11.2C109.8,250.1,108.5,251.9,107,253.3z M111.6,258.8h4c-0.6-2-0.9-4.5-0.9-7.7
		v-18.4h-3.9c-0.4,0-0.8-0.1-1-0.1c-1.5-0.2-2.6-0.3-3.3-0.3c-2.5,0-4.6,0.7-6.4,2.1c-1.7,1.4-3.1,3.3-4.1,5.6
		c-1,2.4-1.5,5.1-1.5,8.1c0,3.8,0.8,6.7,2.3,8.6c1.5,1.9,3.3,2.8,5.2,2.8c1.4,0,2.9-0.6,4.5-1.7c1.6-1.1,3.1-2.8,4.2-4.9
		C111.1,255.4,111.3,257.4,111.6,258.8z M79.7,259.5c3.4,0,5.8-0.7,7.4-2.2c1.5-1.5,2.3-3.3,2.3-5.6c0-1.7-0.5-3.2-1.4-4.3
		c-1-1.2-2.6-2.2-5-3.2l-2.6-1.1c-1.8-0.7-3.1-1.4-3.9-1.9c-0.8-0.6-1.2-1.3-1.2-2.2c0-1,0.5-1.8,1.4-2.4c0.9-0.6,2.2-1,3.8-1
		c2.2,0,4.6,0.5,7.2,1.5v-4c-2.2-0.8-4.5-1.2-7-1.2c-3.3,0-5.7,0.7-7.2,2.1c-1.5,1.4-2.2,3.2-2.2,5.3c0,1.5,0.4,2.8,1.1,3.9
		c0.8,1.1,2.6,2.2,5.4,3.5l2.7,1.2l1.3,0.6c1.6,0.7,2.6,1.3,3,1.8c0.4,0.5,0.6,1.1,0.6,1.8c0,1.1-0.4,1.9-1.3,2.7
		c-0.9,0.7-2.3,1.1-4.2,1.1c-1.2,0-2.7-0.2-4.4-0.7c-1.7-0.5-3.4-1.3-4.9-2.4v4.6C73.7,258.8,76.7,259.5,79.7,259.5z M56.1,253.3
		c-1.4,1.4-2.8,2.1-4,2.1c-1.1,0-2.1-0.7-2.9-2c-0.9-1.3-1.3-3.3-1.3-5.9c0-3.6,0.8-6.4,2.4-8.5c1.6-2.1,3.6-3.1,5.9-3.1
		c1.2,0,2.4,0.2,3.8,0.6v11.2C58.9,250.1,57.6,251.9,56.1,253.3z M60.8,258.8h4c-0.6-2-0.9-4.5-0.9-7.7v-18.4H60
		c-0.4,0-0.8-0.1-1-0.1c-1.5-0.2-2.6-0.3-3.3-0.3c-2.5,0-4.6,0.7-6.4,2.1c-1.7,1.4-3.1,3.3-4.1,5.6c-1,2.4-1.5,5.1-1.5,8.1
		c0,3.8,0.8,6.7,2.3,8.6c1.5,1.9,3.3,2.8,5.2,2.8c1.4,0,2.9-0.6,4.5-1.7c1.6-1.1,3.1-2.8,4.2-4.9C60.2,255.4,60.4,257.4,60.8,258.8z
		 M38.7,254.1c-2.2,1.4-4.4,2.2-6.6,2.2c-1.6,0-3.1-0.6-4.5-1.9c-1.4-1.2-2.5-3.1-3.3-5.6c-0.9-2.5-1.3-5.2-1.3-8.2
		c0-2.9,0.4-5.6,1.3-8.1c0.8-2.5,1.9-4.3,3.3-5.6c1.4-1.3,2.9-1.9,4.5-1.9c2.2,0,4.4,0.7,6.6,2.2v-4.3c-2.4-1-4.6-1.5-6.5-1.5
		c-2.5,0-4.9,0.8-7,2.3c-2.1,1.5-3.7,3.8-4.9,6.8s-1.7,6.4-1.7,10.1c0,3.8,0.6,7.2,1.8,10.2s2.8,5.3,4.9,6.8
		c2.1,1.5,4.4,2.3,6.9,2.3c1.9,0,4.1-0.5,6.5-1.5V254.1z"/>
	<path class="st6" d="M128.6,238.2c1.4-1.4,2.8-2.1,4-2.1c1.1,0,2.1,0.7,3,2c0.9,1.3,1.3,3.3,1.3,5.9c0,3.6-0.8,6.4-2.4,8.5
		s-3.6,3.1-5.9,3.1c-1.2,0-2.5-0.2-3.9-0.6v-11.2C125.9,241.4,127.2,239.5,128.6,238.2z M124.7,221.1h-3.9v37.7h3.9
		c0.4,0,0.8,0.1,1,0.1c1.5,0.2,2.6,0.3,3.3,0.3c2.5,0,4.6-0.7,6.4-2.1c1.7-1.4,3.1-3.3,4.1-5.6c1-2.4,1.5-5.1,1.5-8.1
		c0-3.8-0.8-6.7-2.3-8.6c-1.5-1.9-3.3-2.8-5.2-2.8c-1.4,0-2.9,0.6-4.5,1.7c-1.6,1.1-3.1,2.8-4.2,4.9V221.1z"/>
	<path class="st3" d="M259.7,253.3c-1.4,1.4-2.8,2.1-4,2.1c-1.1,0-2.1-0.7-2.9-2c-0.9-1.3-1.3-3.3-1.3-5.9c0-3.6,0.8-6.4,2.4-8.5
		c1.6-2.1,3.6-3.1,5.9-3.1c1.2,0,2.4,0.2,3.8,0.6v11.2C262.4,250.1,261.1,251.9,259.7,253.3z M264.3,258.8h4c-0.6-2-0.9-4.5-0.9-7.7
		v-18.4h-3.9c-0.4,0-0.8-0.1-1-0.1c-1.5-0.2-2.6-0.3-3.3-0.3c-2.5,0-4.6,0.7-6.4,2.1c-1.7,1.4-3.1,3.3-4.1,5.6
		c-1,2.4-1.5,5.1-1.5,8.1c0,3.8,0.8,6.7,2.3,8.6c1.5,1.9,3.3,2.8,5.2,2.8c1.4,0,2.9-0.6,4.5-1.7c1.6-1.1,3.1-2.8,4.2-4.9
		C263.8,255.4,264,257.4,264.3,258.8z M242.4,253.9c-2.2,0.8-3.7,1.3-4.5,1.5c-0.8,0.1-1.6,0.2-2.5,0.2c-2.8,0-4.8-1.1-6.1-3.2
		c-1.3-2.1-2-4.4-2-6.7c0-1.8,0.3-3.5,1-5.1c0.7-1.7,1.6-2.9,2.9-3.7c1.2-0.8,2.6-1.2,4-1.2c2.1,0,4.5,0.7,7.2,2.1v-4.2
		c-2.7-1-5.2-1.5-7.6-1.5c-3.2,0-6,1.3-8.3,3.9c-2.3,2.6-3.4,5.9-3.4,9.9c0,2.6,0.5,5,1.5,7c1,2.1,2.4,3.7,4.2,4.9
		c1.8,1.2,3.9,1.8,6.2,1.8c2.3,0,4.8-0.5,7.4-1.5V253.9z M201.3,258.8v-15.2c1-2.2,2.3-4,3.8-5.4c1.6-1.4,3-2.2,4.4-2.2
		c0.7,0,1.3,0.3,1.9,0.8c0.6,0.5,1,1.2,1.2,2c0.2,0.8,0.3,2.5,0.3,5v15.1h3.9v-14.6c0-3.9-0.2-6.5-0.7-7.8c-0.4-1.3-1.2-2.4-2.4-3.2
		c-1.1-0.8-2.4-1.2-3.7-1.2c-1.6,0-3.1,0.6-4.7,1.7c-1.6,1.1-2.9,2.7-4,4.7v-5.7h-3.9v26.1H201.3z M183.4,253.3
		c-1.4,1.4-2.8,2.1-4,2.1c-1.1,0-2.1-0.7-2.9-2c-0.9-1.3-1.3-3.3-1.3-5.9c0-3.6,0.8-6.4,2.4-8.5c1.6-2.1,3.6-3.1,5.9-3.1
		c1.2,0,2.4,0.2,3.8,0.6v11.2C186.1,250.1,184.8,251.9,183.4,253.3z M188,258.8h4c-0.6-2-0.9-4.5-0.9-7.7v-18.4h-3.9
		c-0.4,0-0.8-0.1-1-0.1c-1.5-0.2-2.6-0.3-3.3-0.3c-2.5,0-4.6,0.7-6.4,2.1c-1.7,1.4-3.1,3.3-4.1,5.6c-1,2.4-1.5,5.1-1.5,8.1
		c0,3.8,0.8,6.7,2.3,8.6c1.5,1.9,3.3,2.8,5.2,2.8c1.4,0,2.9-0.6,4.5-1.7c1.6-1.1,3.1-2.8,4.2-4.9C187.4,255.4,187.7,257.4,188,258.8
		z M163.9,258.8v-3.6h-7.2v-34.1h-10.8v3.6h6.9v34.1H163.9z"/>
	<path class="st3" d="M384.8,261.5c0.9,0.2,1.9,0.3,3,0.3c3.3,0,5.6-0.8,7.1-2.5c1.5-1.6,2.2-3.6,2.2-5.9c0-3-1.4-5.5-4.3-7.5
		l-1.4-0.9l-1.6-1.1l-1.3-0.9c-1.1-0.7-1.9-1.4-2.6-2.2c-0.7-0.8-1-1.8-1-3c0-1.2,0.4-2.3,1.3-3.1c0.9-0.9,2.1-1.3,3.5-1.3
		c1.8,0,3.7,0.4,5.6,1.3v-3.3c-1.7-0.6-3.6-0.9-5.4-0.9c-2.9,0-5,0.8-6.4,2.3s-2.1,3.4-2.1,5.6c0,3,1.5,5.6,4.6,7.6l1.7,1.1l1.7,1.1
		c1.6,1.1,2.8,2.1,3.4,3s0.9,1.9,0.9,2.9c0,0.9-0.2,1.7-0.7,2.4c-0.4,0.8-1.1,1.3-1.9,1.7c-0.8,0.4-1.7,0.6-2.7,0.6
		c-2.2,0-4.7-0.7-7.4-2.2v3.6C382.7,260.9,383.9,261.3,384.8,261.5z M370,260.9c0.5-0.6,0.8-1.3,0.8-2.2c0-0.9-0.3-1.6-0.8-2.2
		c-0.5-0.6-1.2-0.9-1.9-0.9c-0.7,0-1.4,0.3-1.9,0.9c-0.5,0.6-0.8,1.3-0.8,2.2c0,0.9,0.3,1.6,0.8,2.2c0.5,0.6,1.2,0.9,1.9,0.9
		S369.5,261.5,370,260.9z M346.5,240.2l0.7-3l0.7,3l3.2,11.2h-7.6L346.5,240.2z M342.6,254.4h9.2l1.8,6.5h3.6l-8.1-29.6h-3.5
		l-8.1,29.6h3.3L342.6,254.4z M328.5,260.9c0.5-0.6,0.8-1.3,0.8-2.2c0-0.9-0.3-1.6-0.8-2.2c-0.5-0.6-1.2-0.9-1.9-0.9
		c-0.7,0-1.4,0.3-1.9,0.9c-0.5,0.6-0.8,1.3-0.8,2.2c0,0.9,0.3,1.6,0.8,2.2c0.5,0.6,1.2,0.9,1.9,0.9S328,261.5,328.5,260.9z
		 M301.8,261.5c0.9,0.2,1.9,0.3,3,0.3c3.3,0,5.6-0.8,7.1-2.5c1.5-1.6,2.2-3.6,2.2-5.9c0-3-1.4-5.5-4.3-7.5l-1.4-0.9l-1.6-1.1
		l-1.3-0.9c-1.1-0.7-1.9-1.4-2.6-2.2c-0.7-0.8-1-1.8-1-3c0-1.2,0.4-2.3,1.3-3.1c0.9-0.9,2.1-1.3,3.5-1.3c1.8,0,3.7,0.4,5.6,1.3v-3.3
		c-1.7-0.6-3.6-0.9-5.4-0.9c-2.9,0-5,0.8-6.4,2.3s-2.1,3.4-2.1,5.6c0,3,1.5,5.6,4.6,7.6l1.7,1.1l1.7,1.1c1.6,1.1,2.8,2.1,3.4,3
		s0.9,1.9,0.9,2.9c0,0.9-0.2,1.7-0.7,2.4c-0.4,0.8-1.1,1.3-1.9,1.7c-0.8,0.4-1.7,0.6-2.7,0.6c-2.2,0-4.7-0.7-7.4-2.2v3.6
		C299.7,260.9,300.9,261.3,301.8,261.5z"/>
	<path class="st7" d="M307.9,306.4c2.4,0,4.2-0.5,5.3-1.6c1.1-1,1.6-2.4,1.6-4c0-1.2-0.3-2.3-1-3.1c-0.7-0.8-1.9-1.6-3.6-2.3
		l-1.9-0.8c-1.3-0.5-2.2-1-2.8-1.4c-0.6-0.4-0.9-0.9-0.9-1.6c0-0.7,0.3-1.3,1-1.7s1.6-0.7,2.7-0.7c1.6,0,3.3,0.4,5.1,1.1v-2.8
		c-1.6-0.6-3.2-0.9-5-0.9c-2.4,0-4.1,0.5-5.1,1.5c-1,1-1.6,2.3-1.6,3.8c0,1.1,0.3,2,0.8,2.8c0.5,0.8,1.8,1.6,3.9,2.5l1.9,0.9
		l0.9,0.4c1.1,0.5,1.8,1,2.1,1.3c0.3,0.4,0.4,0.8,0.4,1.3c0,0.8-0.3,1.4-0.9,1.9c-0.6,0.5-1.6,0.8-3,0.8c-0.9,0-1.9-0.2-3.1-0.5
		s-2.4-0.9-3.5-1.7v3.3C303.6,305.9,305.8,306.4,307.9,306.4z M275.8,301.9c-0.9-1.3-1.3-3.1-1.3-5.3c0-2.2,0.4-4,1.3-5.3
		c0.9-1.3,2-1.9,3.5-1.9c1.5,0,2.6,0.6,3.5,1.9c0.9,1.3,1.3,3.1,1.3,5.3c0,2.3-0.4,4-1.3,5.3c-0.9,1.3-2,1.9-3.5,1.9
		C277.9,303.9,276.7,303.2,275.8,301.9z M285,303.7c1.4-1.9,2.1-4.2,2.1-7c0-2.8-0.7-5.2-2.1-7c-1.4-1.9-3.3-2.8-5.7-2.8
		c-2.4,0-4.3,0.9-5.7,2.8c-1.4,1.9-2.1,4.2-2.1,7c0,2.8,0.7,5.2,2.1,7c1.4,1.9,3.3,2.8,5.7,2.8C281.7,306.4,283.6,305.5,285,303.7z
		 M252.1,305.9l7.2-18.6h-2.7l-5.8,14.7l-5.7-14.7h-3l7.2,18.6H252.1z M220,282.1c0.4,0.3,0.8,0.5,1.2,0.5c0.4,0,0.8-0.2,1.2-0.5
		c0.4-0.3,0.6-0.9,0.6-1.6c0-0.7-0.2-1.2-0.6-1.6c-0.4-0.3-0.8-0.5-1.2-0.5c-0.4,0-0.8,0.2-1.2,0.5c-0.4,0.3-0.6,0.9-0.6,1.6
		C219.4,281.3,219.6,281.8,220,282.1z M227.2,305.9v-2.6h-4.6v-16h-7.3v2.6h4.6v16H227.2z M200.4,302.4c-1.5,0.9-2.9,1.4-4.2,1.4
		c-0.7,0-1.3-0.1-1.9-0.4c-0.5-0.3-0.9-0.7-1.3-1.4c-0.3-0.6-0.5-1.7-0.5-3.2v-7.5h7.3v-2.6h-7.3v-7.5h-2.7v7.5h-4.1v2.6h4.1v7.5
		c0,2,0.2,3.6,0.7,4.5c0.5,1,1.2,1.7,2.2,2.2c1,0.5,2,0.8,3.2,0.8c0.5,0,1.1-0.1,1.7-0.2c0.6-0.1,1.5-0.5,2.8-1.1V302.4z
		 M170.3,305.9v-2.6h-5.2V279h-7.7v2.6h4.9v24.3H170.3z M140.1,287.3v10.9c-0.7,1.6-1.6,2.9-2.8,3.9c-1.1,1-2.1,1.5-3.1,1.5
		c-0.5,0-0.9-0.2-1.3-0.5c-0.4-0.4-0.7-0.8-0.8-1.4c-0.2-0.6-0.2-1.8-0.2-3.5v-10.8h-2.7v10.4c0,2.8,0.2,4.6,0.5,5.6
		c0.3,1,0.9,1.7,1.7,2.3c0.8,0.6,1.7,0.9,2.7,0.9c1.1,0,2.2-0.4,3.3-1.2c1.1-0.8,2.1-1.9,3-3.5v4.1h2.7v-18.6H140.1z M114.5,302.4
		c-1.6,0.6-2.6,0.9-3.2,1c-0.6,0.1-1.2,0.1-1.8,0.1c-2,0-3.4-0.8-4.4-2.3c-0.9-1.5-1.4-3.1-1.4-4.8c0-1.3,0.2-2.5,0.7-3.7
		c0.5-1.2,1.2-2.1,2.1-2.6c0.9-0.6,1.8-0.8,2.8-0.8c1.5,0,3.2,0.5,5.2,1.5v-3c-1.9-0.7-3.7-1.1-5.4-1.1c-2.3,0-4.3,0.9-5.9,2.8
		c-1.6,1.9-2.4,4.2-2.4,7c0,1.9,0.4,3.6,1.1,5c0.7,1.5,1.7,2.6,3,3.5c1.3,0.9,2.8,1.3,4.4,1.3c1.7,0,3.4-0.4,5.3-1.1V302.4z"/>
	<rect x="5" y="267.7" class="st8" width="408" height="2.7"/>
	<path class="st9" d="M300.7,54.1c-0.5,9.7-1.7,19.3-2.9,28.8c-0.6,4.8-1.4,9.5-1.5,14.2c-0.2,4.8-0.5,9.6-1.1,14.5
		c-0.5-4.8-0.9-9.6-1.1-14.5c-0.3-4.9,0.4-9.8,0.9-14.6C296.4,73,298.1,63.5,300.7,54.1z"/>
	<path class="st3" d="M317.2,7.6c0,0-16.4,8.2-19.2,21.9s2.6,25.3,2.6,25.3s16.5-11.6,16.5-19.8S311.7,13,317.2,7.6z"/>
	<path class="st3" d="M267.9,32.2c0,0,2.7,24.6,13.7,30.1c11,5.5,16.9,6.2,16.9,6.2s16,7.5,24.2-0.7c8.2-8.2,13.7-8.2,13.7-8.2
		s-8.2-11-19.2-8.2c-11,2.7-16.4,13.7-16.4,13.7S300.7,43.1,267.9,32.2z"/>
	<path class="st3" d="M267.9,65.1c0,0,5.5,21.9,11,24.6c5.5,2.7,16.4,0,16.4,0S292.5,65.1,267.9,65.1z"/>
	<path class="st3" d="M328.1,73.3c0,0-8.2,16.4-13.7,19.2c-5.5,2.7-19.2-2.7-19.2-2.7S306.2,65.1,328.1,73.3z"/>
	<path class="st9" d="M311.7,15.8c0,0-5.5,13.7-8.2,24.6c-2.7,11-2.7,11-2.7,11"/>
	<path class="st1" d="M311.7,15.8c-1.8,6-3.7,11.9-5.6,17.8c-1.9,5.9-3.3,11.9-5.4,17.8c0.5-3.1,1.1-6.1,1.8-9.2
		c0.6-3,1.4-6.1,2.3-9.1C306.7,27.2,308.9,21.4,311.7,15.8z"/>
	<path class="st9" d="M277.5,44.5c0,0,13.7,13.7,13.7,16.4"/>
	<path class="st1" d="M277.5,44.5c2.9,2.2,5.5,4.7,7.9,7.3c1.2,1.3,2.4,2.7,3.4,4.2c1,1.5,2.2,3,2.4,4.9c-0.3-0.9-0.9-1.5-1.5-2.2
		c-0.6-0.7-1.1-1.4-1.8-2l-3.6-4C282,50.1,279.6,47.4,277.5,44.5z"/>
	<path class="st9" d="M324,58.2c0,0-8.2,0-13.7,5.5"/>
	<path class="st1" d="M324,58.2c-2.5,0.6-4.8,1.2-7.1,2.1c-1.1,0.4-2.2,0.9-3.3,1.5c-1.1,0.5-2.1,1.2-3.2,1.9
		c1.4-2.1,3.7-3.7,6.1-4.6C318.8,58.2,321.5,57.8,324,58.2z"/>
	<path class="st9" d="M274.7,74.6c0,0,11,8.2,13.7,13.7"/>
	<path class="st1" d="M274.7,74.6c2.9,1.6,5.5,3.6,7.9,5.8c1.2,1.1,2.3,2.3,3.3,3.6c1,1.3,2,2.7,2.4,4.3c-1-1.3-2.1-2.5-3.2-3.6
		c-1.2-1.1-2.3-2.2-3.5-3.3C279.4,79.2,277,77,274.7,74.6z"/>
	<path class="st9" d="M318.5,80.1c0,0-8.2,2.7-13.7,8.2"/>
	<path class="st1" d="M318.5,80.1l-6.9,4c-1.2,0.6-2.3,1.4-3.4,2c-1.1,0.7-2.2,1.5-3.4,2.2c1.5-2.3,3.7-4,6.1-5.4
		C313.3,81.6,315.8,80.5,318.5,80.1z"/>
	<path class="st3" d="M300.7,114.3c1.5-2.6,3.5-4.9,5.6-7.1c2.1-2.2,4.5-4.1,7-5.8c2.6-1.6,5.3-3.1,8.4-3.8c3-0.8,6.3-0.9,9.1,0.2
		c-6,0.1-11.1,2.8-16,5.9C310,106.9,305.5,110.7,300.7,114.3z"/>
</g>
</svg>
